<svg xmlns="http://www.w3.org/2000/svg" viewBox="0 0 1200 800" width="1200" height="800" role="img">
<defs>
  <linearGradient id="g-bg" x1="0" y1="0" x2="0.6" y2="1">
    <stop offset="0%" stop-color="#101014"/><stop offset="100%" stop-color="#050507"/>
  </linearGradient>
  <radialGradient id="g-glow" cx="0.5" cy="0.28" r="0.75">
    <stop offset="0%" stop-color="#C6A87C" stop-opacity="0.16"/>
    <stop offset="100%" stop-color="#C6A87C" stop-opacity="0"/>
  </radialGradient>
  <linearGradient id="g-img" x1="0" y1="0" x2="1" y2="1">
    <stop offset="0%" stop-color="#35353E"/><stop offset="55%" stop-color="#232329"/><stop offset="100%" stop-color="#17171C"/>
  </linearGradient>
  <linearGradient id="g-brass" x1="0" y1="0" x2="1" y2="1">
    <stop offset="0%" stop-color="#C6A87C" stop-opacity="0.9"/><stop offset="100%" stop-color="#8C7554" stop-opacity="0.35"/>
  </linearGradient>
</defs>
<rect x="0" y="0" width="1200" height="800" rx="0" fill="#101014"/>
<rect x="0" y="0" width="1200" height="800" rx="0" fill="url(#g-bg)"/>
<rect x="0" y="0" width="1200" height="800" rx="0" fill="url(#g-glow)"/>
<rect x="0" y="0" width="1200" height="800" rx="0" fill="#101014"/><defs><linearGradient id="lt1" x1="0.2" y1="0" x2="0.8" y2="1">
      <stop offset="0%" stop-color="#9FB4C9" stop-opacity="0.28"/>
      <stop offset="60%" stop-color="#050507" stop-opacity="0.1"/>
      <stop offset="100%" stop-color="#050507" stop-opacity="0.9"/>
    </linearGradient></defs><rect x="661.42" y="594.7" width="512.08" height="100.11" rx="0" fill="#232329" opacity="0.59"/><rect x="785.59" y="680.82" width="139.62" height="267.38" rx="0" fill="#17171C" opacity="0.71"/><rect x="1056.99" y="782.54" width="158.42" height="345.6" rx="0" fill="#17171C" opacity="0.85"/><rect x="936.53" y="695.11" width="226.46" height="273.69" rx="0" fill="#232329" opacity="0.62"/><rect x="1059.65" y="209.55" width="269.76" height="239.85" rx="0" fill="#17171C" opacity="0.58"/><rect x="1171.07" y="698.45" width="310.72" height="216.75" rx="0" fill="#17171C" opacity="0.77"/><rect x="786.91" y="309.06" width="469.4" height="125.85" rx="0" fill="#232329" opacity="0.52"/><rect x="1185.51" y="67.67" width="336.16" height="267.09" rx="0" fill="#17171C" opacity="0.53"/><rect x="61.92" y="166.42" width="254.1" height="216.03" rx="0" fill="#17171C" opacity="0.86"/><ellipse cx="313.31" cy="463.37" rx="61.07" ry="174.48" fill="#050507" opacity="0.72"/><circle cx="313.31" cy="267.07" r="43.62" fill="#050507" opacity="0.75"/><ellipse cx="677.2" cy="519.08" rx="48.59" ry="138.83" fill="#050507" opacity="0.72"/><circle cx="677.2" cy="362.9" r="34.71" fill="#050507" opacity="0.75"/><ellipse cx="1034.57" cy="492.93" rx="54.45" ry="155.56" fill="#050507" opacity="0.72"/><circle cx="1034.57" cy="317.93" r="38.89" fill="#050507" opacity="0.75"/><rect x="736.05" y="432.49" width="150.28" height="148.86" rx="2" fill="#0A0A0D" opacity="0.85"/><rect x="744.05" y="440.49" width="92.93" height="5" rx="2" fill="#9FB4C9" opacity="0.7"/><rect x="744.05" y="454.49" width="103.11" height="4" rx="2" fill="#35353E" opacity="0.6"/><rect x="616.03" y="296.02" width="170.47" height="153.84" rx="2" fill="#0A0A0D" opacity="0.85"/><rect x="624.03" y="304.02" width="99.12" height="5" rx="2" fill="#9FB4C9" opacity="0.7"/><rect x="624.03" y="318.02" width="149.53" height="4" rx="2" fill="#35353E" opacity="0.6"/><rect x="593.08" y="435.61" width="160.92" height="201.32" rx="2" fill="#0A0A0D" opacity="0.85"/><rect x="601.08" y="443.61" width="68.65" height="5" rx="2" fill="#9FB4C9" opacity="0.7"/><rect x="601.08" y="457.61" width="154.06" height="4" rx="2" fill="#35353E" opacity="0.6"/><rect x="620.95" y="264.16" width="188.6" height="153.37" rx="2" fill="#0A0A0D" opacity="0.85"/><rect x="628.95" y="272.16" width="113.69" height="5" rx="2" fill="#9FB4C9" opacity="0.7"/><rect x="628.95" y="286.16" width="90.97" height="4" rx="2" fill="#35353E" opacity="0.6"/><rect x="910.19" y="358.14" width="186.01" height="130.87" rx="2" fill="#0A0A0D" opacity="0.85"/><rect x="918.19" y="366.14" width="76.59" height="5" rx="2" fill="#9FB4C9" opacity="0.7"/><rect x="918.19" y="380.14" width="145.35" height="4" rx="2" fill="#35353E" opacity="0.6"/><rect x="0" y="0" width="1200" height="800" rx="0" fill="url(#lt1)"/><rect x="600.78" y="356.09" width="2" height="2" rx="0" fill="#E6E6EA" opacity="0.01"/><rect x="1051.26" y="615.7" width="2" height="2" rx="0" fill="#E6E6EA" opacity="0.05"/><rect x="935.86" y="434.35" width="2" height="2" rx="0" fill="#E6E6EA" opacity="0.01"/><rect x="514.61" y="403.82" width="2" height="2" rx="0" fill="#E6E6EA" opacity="0.04"/><rect x="480.86" y="643.44" width="2" height="2" rx="0" fill="#E6E6EA" opacity="0.04"/><rect x="234.78" y="198.1" width="2" height="2" rx="0" fill="#E6E6EA" opacity="0.04"/><rect x="426.82" y="729.57" width="2" height="2" rx="0" fill="#E6E6EA" opacity="0.02"/><rect x="604.96" y="789.95" width="2" height="2" rx="0" fill="#E6E6EA" opacity="0.05"/><rect x="1151.52" y="40.1" width="2" height="2" rx="0" fill="#E6E6EA" opacity="0.02"/><rect x="851.99" y="611.51" width="2" height="2" rx="0" fill="#E6E6EA" opacity="0.05"/><rect x="344.88" y="283.23" width="2" height="2" rx="0" fill="#E6E6EA" opacity="0.01"/><rect x="651.89" y="213.15" width="2" height="2" rx="0" fill="#E6E6EA" opacity="0.05"/><rect x="724.18" y="633.92" width="2" height="2" rx="0" fill="#E6E6EA" opacity="0.04"/><rect x="1021.07" y="712.78" width="2" height="2" rx="0" fill="#E6E6EA" opacity="0.03"/><rect x="247.37" y="520.43" width="2" height="2" rx="0" fill="#E6E6EA" opacity="0.02"/><rect x="408.48" y="129.73" width="2" height="2" rx="0" fill="#E6E6EA" opacity="0.02"/><rect x="940.81" y="674.56" width="2" height="2" rx="0" fill="#E6E6EA" opacity="0.03"/><rect x="837.78" y="632.3" width="2" height="2" rx="0" fill="#E6E6EA" opacity="0.04"/><rect x="185.24" y="303.26" width="2" height="2" rx="0" fill="#E6E6EA" opacity="0"/><rect x="1093.51" y="467.46" width="2" height="2" rx="0" fill="#E6E6EA" opacity="0.04"/><rect x="309.41" y="451.79" width="2" height="2" rx="0" fill="#E6E6EA" opacity="0.02"/><rect x="1126.76" y="140.37" width="2" height="2" rx="0" fill="#E6E6EA" opacity="0"/><rect x="226.95" y="477.81" width="2" height="2" rx="0" fill="#E6E6EA" opacity="0.01"/><rect x="234.4" y="22.85" width="2" height="2" rx="0" fill="#E6E6EA" opacity="0.01"/><rect x="495.53" y="255.67" width="2" height="2" rx="0" fill="#E6E6EA" opacity="0.02"/><rect x="308.37" y="2.28" width="2" height="2" rx="0" fill="#E6E6EA" opacity="0.05"/><rect x="90.71" y="387.45" width="2" height="2" rx="0" fill="#E6E6EA" opacity="0.04"/><rect x="942.93" y="430.03" width="2" height="2" rx="0" fill="#E6E6EA" opacity="0.02"/><rect x="90.36" y="481.53" width="2" height="2" rx="0" fill="#E6E6EA" opacity="0.01"/><rect x="1153.89" y="191.39" width="2" height="2" rx="0" fill="#E6E6EA" opacity="0.04"/><rect x="691.8" y="230.82" width="2" height="2" rx="0" fill="#E6E6EA" opacity="0.01"/><rect x="830.11" y="338.43" width="2" height="2" rx="0" fill="#E6E6EA" opacity="0.05"/><rect x="1040.34" y="693.61" width="2" height="2" rx="0" fill="#E6E6EA" opacity="0.04"/><rect x="222.43" y="203.54" width="2" height="2" rx="0" fill="#E6E6EA" opacity="0"/><rect x="516.56" y="677.95" width="2" height="2" rx="0" fill="#E6E6EA" opacity="0.05"/><rect x="882.06" y="772.43" width="2" height="2" rx="0" fill="#E6E6EA" opacity="0.04"/><rect x="1113.11" y="75.57" width="2" height="2" rx="0" fill="#E6E6EA" opacity="0.04"/><rect x="429.12" y="128.08" width="2" height="2" rx="0" fill="#E6E6EA" opacity="0.04"/><rect x="224.59" y="438.06" width="2" height="2" rx="0" fill="#E6E6EA" opacity="0"/><rect x="818.44" y="718.3" width="2" height="2" rx="0" fill="#E6E6EA" opacity="0.03"/><rect x="657.03" y="242.71" width="2" height="2" rx="0" fill="#E6E6EA" opacity="0.05"/><rect x="1103.33" y="17.22" width="2" height="2" rx="0" fill="#E6E6EA" opacity="0.04"/><rect x="452.37" y="671.17" width="2" height="2" rx="0" fill="#E6E6EA" opacity="0.02"/><rect x="686.12" y="528.25" width="2" height="2" rx="0" fill="#E6E6EA" opacity="0.04"/><rect x="818.26" y="362.64" width="2" height="2" rx="0" fill="#E6E6EA" opacity="0.03"/><rect x="563.44" y="380.82" width="2" height="2" rx="0" fill="#E6E6EA" opacity="0.03"/><rect x="958.36" y="470.89" width="2" height="2" rx="0" fill="#E6E6EA" opacity="0.04"/><rect x="558.38" y="462.58" width="2" height="2" rx="0" fill="#E6E6EA" opacity="0.01"/><rect x="418.24" y="642.79" width="2" height="2" rx="0" fill="#E6E6EA" opacity="0.01"/><rect x="1064.06" y="54.57" width="2" height="2" rx="0" fill="#E6E6EA" opacity="0.02"/><rect x="1120.05" y="171.28" width="2" height="2" rx="0" fill="#E6E6EA" opacity="0.02"/><rect x="764.43" y="356.1" width="2" height="2" rx="0" fill="#E6E6EA" opacity="0.01"/><rect x="834.9" y="403.05" width="2" height="2" rx="0" fill="#E6E6EA" opacity="0.02"/><rect x="27.53" y="449.35" width="2" height="2" rx="0" fill="#E6E6EA" opacity="0.02"/><rect x="364.02" y="357.19" width="2" height="2" rx="0" fill="#E6E6EA" opacity="0"/><rect x="574.02" y="500.62" width="2" height="2" rx="0" fill="#E6E6EA" opacity="0.02"/><rect x="417.91" y="124.65" width="2" height="2" rx="0" fill="#E6E6EA" opacity="0.04"/><rect x="212.81" y="483.73" width="2" height="2" rx="0" fill="#E6E6EA" opacity="0.03"/><rect x="550.19" y="690.28" width="2" height="2" rx="0" fill="#E6E6EA" opacity="0.04"/><rect x="990.01" y="750.61" width="2" height="2" rx="0" fill="#E6E6EA" opacity="0.02"/><rect x="386.44" y="315.96" width="2" height="2" rx="0" fill="#E6E6EA" opacity="0.04"/><rect x="1125.47" y="129.02" width="2" height="2" rx="0" fill="#E6E6EA" opacity="0.03"/><rect x="901.04" y="663.29" width="2" height="2" rx="0" fill="#E6E6EA" opacity="0.05"/><rect x="320.87" y="19.27" width="2" height="2" rx="0" fill="#E6E6EA" opacity="0.04"/><rect x="596.08" y="512.17" width="2" height="2" rx="0" fill="#E6E6EA" opacity="0.01"/><rect x="13.08" y="109.39" width="2" height="2" rx="0" fill="#E6E6EA" opacity="0.01"/><rect x="991.63" y="526.64" width="2" height="2" rx="0" fill="#E6E6EA" opacity="0.01"/><rect x="767.55" y="185.38" width="2" height="2" rx="0" fill="#E6E6EA" opacity="0.03"/><rect x="99.98" y="197.35" width="2" height="2" rx="0" fill="#E6E6EA" opacity="0"/><rect x="442.28" y="417.88" width="2" height="2" rx="0" fill="#E6E6EA" opacity="0"/><rect x="274.2" y="316.35" width="2" height="2" rx="0" fill="#E6E6EA" opacity="0"/><rect x="317.77" y="526.3" width="2" height="2" rx="0" fill="#E6E6EA" opacity="0.04"/><rect x="1125.41" y="297.5" width="2" height="2" rx="0" fill="#E6E6EA" opacity="0"/><rect x="744.05" y="66.85" width="2" height="2" rx="0" fill="#E6E6EA" opacity="0.02"/><rect x="1138.87" y="695.1" width="2" height="2" rx="0" fill="#E6E6EA" opacity="0.01"/><rect x="317.71" y="673.01" width="2" height="2" rx="0" fill="#E6E6EA" opacity="0.01"/><rect x="94.23" y="653.69" width="2" height="2" rx="0" fill="#E6E6EA" opacity="0.01"/><rect x="502.25" y="358.64" width="2" height="2" rx="0" fill="#E6E6EA" opacity="0.03"/><rect x="194.49" y="9.69" width="2" height="2" rx="0" fill="#E6E6EA" opacity="0.03"/><rect x="432.6" y="733.64" width="2" height="2" rx="0" fill="#E6E6EA" opacity="0.05"/><rect x="1069.83" y="719.15" width="2" height="2" rx="0" fill="#E6E6EA" opacity="0.02"/><rect x="227.75" y="687.44" width="2" height="2" rx="0" fill="#E6E6EA" opacity="0.02"/><rect x="810.6" y="117.84" width="2" height="2" rx="0" fill="#E6E6EA" opacity="0.04"/><rect x="739.97" y="690.96" width="2" height="2" rx="0" fill="#E6E6EA" opacity="0.01"/><rect x="329.79" y="795.53" width="2" height="2" rx="0" fill="#E6E6EA" opacity="0"/><rect x="1155.8" y="787.08" width="2" height="2" rx="0" fill="#E6E6EA" opacity="0.03"/><rect x="396.17" y="559.95" width="2" height="2" rx="0" fill="#E6E6EA" opacity="0.05"/><rect x="788.98" y="284.42" width="2" height="2" rx="0" fill="#E6E6EA" opacity="0.01"/><rect x="520.82" y="446" width="2" height="2" rx="0" fill="#E6E6EA" opacity="0.05"/><rect x="799.57" y="478.11" width="2" height="2" rx="0" fill="#E6E6EA" opacity="0.02"/><rect x="1058.46" y="523.93" width="2" height="2" rx="0" fill="#E6E6EA" opacity="0.01"/><rect x="378.83" y="638.07" width="2" height="2" rx="0" fill="#E6E6EA" opacity="0.01"/><rect x="442.67" y="20.12" width="2" height="2" rx="0" fill="#E6E6EA" opacity="0.03"/><rect x="1063.91" y="711.75" width="2" height="2" rx="0" fill="#E6E6EA" opacity="0"/><rect x="789.97" y="158.38" width="2" height="2" rx="0" fill="#E6E6EA" opacity="0.02"/><rect x="40.5" y="235.15" width="2" height="2" rx="0" fill="#E6E6EA" opacity="0.01"/><rect x="558.49" y="102.45" width="2" height="2" rx="0" fill="#E6E6EA" opacity="0.02"/><rect x="431.13" y="297.45" width="2" height="2" rx="0" fill="#E6E6EA" opacity="0.05"/><rect x="1123.76" y="175.57" width="2" height="2" rx="0" fill="#E6E6EA" opacity="0.03"/><rect x="770.43" y="463.12" width="2" height="2" rx="0" fill="#E6E6EA" opacity="0.02"/><rect x="746.82" y="680.55" width="2" height="2" rx="0" fill="#E6E6EA" opacity="0.03"/><rect x="715.7" y="778.95" width="2" height="2" rx="0" fill="#E6E6EA" opacity="0.04"/><rect x="575.23" y="476.94" width="2" height="2" rx="0" fill="#E6E6EA" opacity="0.05"/><rect x="259.08" y="538.53" width="2" height="2" rx="0" fill="#E6E6EA" opacity="0.05"/><rect x="1147.83" y="290.22" width="2" height="2" rx="0" fill="#E6E6EA" opacity="0"/><rect x="1165.97" y="336.06" width="2" height="2" rx="0" fill="#E6E6EA" opacity="0.01"/><rect x="658.06" y="494.47" width="2" height="2" rx="0" fill="#E6E6EA" opacity="0.01"/><rect x="599.9" y="132.46" width="2" height="2" rx="0" fill="#E6E6EA" opacity="0.04"/><rect x="470.81" y="70.87" width="2" height="2" rx="0" fill="#E6E6EA" opacity="0.04"/><rect x="568.1" y="544.99" width="2" height="2" rx="0" fill="#E6E6EA" opacity="0.03"/><rect x="487.17" y="124.1" width="2" height="2" rx="0" fill="#E6E6EA" opacity="0.01"/><rect x="805.43" y="535.32" width="2" height="2" rx="0" fill="#E6E6EA" opacity="0.01"/><rect x="60.78" y="186.71" width="2" height="2" rx="0" fill="#E6E6EA" opacity="0.03"/><rect x="1109.53" y="724.94" width="2" height="2" rx="0" fill="#E6E6EA" opacity="0"/><rect x="315.2" y="529.65" width="2" height="2" rx="0" fill="#E6E6EA" opacity="0.02"/><rect x="1068.82" y="589.93" width="2" height="2" rx="0" fill="#E6E6EA" opacity="0.04"/><rect x="86.74" y="699.43" width="2" height="2" rx="0" fill="#E6E6EA" opacity="0.01"/><rect x="417.95" y="561.57" width="2" height="2" rx="0" fill="#E6E6EA" opacity="0.04"/><rect x="700.25" y="469.46" width="2" height="2" rx="0" fill="#E6E6EA" opacity="0.04"/><rect x="104.87" y="621.84" width="2" height="2" rx="0" fill="#E6E6EA" opacity="0.01"/><rect x="199.32" y="490.09" width="2" height="2" rx="0" fill="#E6E6EA" opacity="0.01"/><rect x="905.67" y="519.76" width="2" height="2" rx="0" fill="#E6E6EA" opacity="0.02"/><rect x="781.41" y="183.9" width="2" height="2" rx="0" fill="#E6E6EA" opacity="0.02"/><rect x="1144.07" y="578.78" width="2" height="2" rx="0" fill="#E6E6EA" opacity="0.02"/><rect x="829.37" y="67.42" width="2" height="2" rx="0" fill="#E6E6EA" opacity="0.02"/><rect x="175.98" y="563.47" width="2" height="2" rx="0" fill="#E6E6EA" opacity="0.04"/><rect x="716.24" y="450.95" width="2" height="2" rx="0" fill="#E6E6EA" opacity="0.05"/><rect x="11.54" y="461.45" width="2" height="2" rx="0" fill="#E6E6EA" opacity="0.03"/><rect x="476.26" y="358.31" width="2" height="2" rx="0" fill="#E6E6EA" opacity="0.03"/><rect x="302.78" y="531.09" width="2" height="2" rx="0" fill="#E6E6EA" opacity="0.03"/><rect x="1116.53" y="760.64" width="2" height="2" rx="0" fill="#E6E6EA" opacity="0.01"/><rect x="642.15" y="644.95" width="2" height="2" rx="0" fill="#E6E6EA" opacity="0.03"/><rect x="222.61" y="717.47" width="2" height="2" rx="0" fill="#E6E6EA" opacity="0.01"/><rect x="546.48" y="713.19" width="2" height="2" rx="0" fill="#E6E6EA" opacity="0.01"/><rect x="1110.15" y="511.45" width="2" height="2" rx="0" fill="#E6E6EA" opacity="0.05"/><rect x="927.72" y="365.54" width="2" height="2" rx="0" fill="#E6E6EA" opacity="0.03"/><rect x="1088.76" y="791.93" width="2" height="2" rx="0" fill="#E6E6EA" opacity="0.02"/><rect x="526.8" y="179.08" width="2" height="2" rx="0" fill="#E6E6EA" opacity="0.01"/><rect x="984.77" y="419.23" width="2" height="2" rx="0" fill="#E6E6EA" opacity="0.02"/><rect x="404.5" y="299.41" width="2" height="2" rx="0" fill="#E6E6EA" opacity="0.01"/><rect x="231.79" y="279.01" width="2" height="2" rx="0" fill="#E6E6EA" opacity="0.04"/><rect x="579.65" y="398.56" width="2" height="2" rx="0" fill="#E6E6EA" opacity="0.02"/><rect x="662.6" y="225.84" width="2" height="2" rx="0" fill="#E6E6EA" opacity="0.04"/><rect x="823.36" y="717.65" width="2" height="2" rx="0" fill="#E6E6EA" opacity="0.04"/><rect x="229.56" y="188.56" width="2" height="2" rx="0" fill="#E6E6EA" opacity="0.02"/><rect x="901.33" y="707.2" width="2" height="2" rx="0" fill="#E6E6EA" opacity="0.02"/><rect x="1102.14" y="327.47" width="2" height="2" rx="0" fill="#E6E6EA" opacity="0.04"/><rect x="677.91" y="590.52" width="2" height="2" rx="0" fill="#E6E6EA" opacity="0.05"/><rect x="665.45" y="107.43" width="2" height="2" rx="0" fill="#E6E6EA" opacity="0.05"/><rect x="678.27" y="631.93" width="2" height="2" rx="0" fill="#E6E6EA" opacity="0.01"/><rect x="520.22" y="64.07" width="2" height="2" rx="0" fill="#E6E6EA" opacity="0.01"/><rect x="671.73" y="156.67" width="2" height="2" rx="0" fill="#E6E6EA" opacity="0.02"/><rect x="428.22" y="468.21" width="2" height="2" rx="0" fill="#E6E6EA" opacity="0.02"/><rect x="1150.84" y="430.73" width="2" height="2" rx="0" fill="#E6E6EA" opacity="0"/><rect x="991.8" y="796.6" width="2" height="2" rx="0" fill="#E6E6EA" opacity="0.03"/><rect x="1190.37" y="44.86" width="2" height="2" rx="0" fill="#E6E6EA" opacity="0.02"/><rect x="108.94" y="586.32" width="2" height="2" rx="0" fill="#E6E6EA" opacity="0.04"/><rect x="85.23" y="565.38" width="2" height="2" rx="0" fill="#E6E6EA" opacity="0.05"/><rect x="816.52" y="798.88" width="2" height="2" rx="0" fill="#E6E6EA" opacity="0.02"/><rect x="332.54" y="405.37" width="2" height="2" rx="0" fill="#E6E6EA" opacity="0.02"/><rect x="121.48" y="352.3" width="2" height="2" rx="0" fill="#E6E6EA" opacity="0.02"/><rect x="280.36" y="545.72" width="2" height="2" rx="0" fill="#E6E6EA" opacity="0.05"/><rect x="1084.66" y="488.71" width="2" height="2" rx="0" fill="#E6E6EA" opacity="0.01"/><rect x="929.92" y="192.24" width="2" height="2" rx="0" fill="#E6E6EA" opacity="0.04"/><rect x="918.04" y="773.84" width="2" height="2" rx="0" fill="#E6E6EA" opacity="0.02"/><rect x="500.39" y="273.89" width="2" height="2" rx="0" fill="#E6E6EA" opacity="0"/><rect x="696.91" y="595.77" width="2" height="2" rx="0" fill="#E6E6EA" opacity="0.02"/><rect x="671.01" y="48.37" width="2" height="2" rx="0" fill="#E6E6EA" opacity="0.01"/><rect x="369.19" y="657.77" width="2" height="2" rx="0" fill="#E6E6EA" opacity="0.05"/><rect x="818.26" y="354.53" width="2" height="2" rx="0" fill="#E6E6EA" opacity="0.01"/><rect x="1152.77" y="419.28" width="2" height="2" rx="0" fill="#E6E6EA" opacity="0.03"/><rect x="295.78" y="532.66" width="2" height="2" rx="0" fill="#E6E6EA" opacity="0.03"/><rect x="931.77" y="120.74" width="2" height="2" rx="0" fill="#E6E6EA" opacity="0.03"/><rect x="845.2" y="562.69" width="2" height="2" rx="0" fill="#E6E6EA" opacity="0.02"/><rect x="784.68" y="85.17" width="2" height="2" rx="0" fill="#E6E6EA" opacity="0.01"/><rect x="1157.07" y="552.66" width="2" height="2" rx="0" fill="#E6E6EA" opacity="0.04"/><rect x="1191.22" y="59.57" width="2" height="2" rx="0" fill="#E6E6EA" opacity="0.03"/><rect x="936.59" y="574.15" width="2" height="2" rx="0" fill="#E6E6EA" opacity="0.01"/><rect x="1114.09" y="589.31" width="2" height="2" rx="0" fill="#E6E6EA" opacity="0.03"/><rect x="313.84" y="464.81" width="2" height="2" rx="0" fill="#E6E6EA" opacity="0"/><rect x="722.07" y="127.39" width="2" height="2" rx="0" fill="#E6E6EA" opacity="0.01"/><rect x="341.92" y="711.09" width="2" height="2" rx="0" fill="#E6E6EA" opacity="0.01"/><rect x="940.71" y="392.87" width="2" height="2" rx="0" fill="#E6E6EA" opacity="0.04"/><rect x="67.04" y="14.1" width="2" height="2" rx="0" fill="#E6E6EA" opacity="0.01"/><rect x="130.15" y="648.03" width="2" height="2" rx="0" fill="#E6E6EA" opacity="0.02"/><rect x="751.56" y="188.43" width="2" height="2" rx="0" fill="#E6E6EA" opacity="0.04"/><rect x="392.59" y="398.91" width="2" height="2" rx="0" fill="#E6E6EA" opacity="0.04"/><rect x="895.81" y="464.77" width="2" height="2" rx="0" fill="#E6E6EA" opacity="0.02"/><rect x="272.85" y="447.36" width="2" height="2" rx="0" fill="#E6E6EA" opacity="0.02"/><rect x="79.12" y="91.57" width="2" height="2" rx="0" fill="#E6E6EA" opacity="0.04"/><rect x="495.36" y="791.27" width="2" height="2" rx="0" fill="#E6E6EA" opacity="0.03"/><rect x="151.87" y="0.93" width="2" height="2" rx="0" fill="#E6E6EA" opacity="0.03"/><rect x="341.91" y="581.34" width="2" height="2" rx="0" fill="#E6E6EA" opacity="0.01"/><rect x="743.08" y="340.6" width="2" height="2" rx="0" fill="#E6E6EA" opacity="0.03"/><rect x="414.83" y="52" width="2" height="2" rx="0" fill="#E6E6EA" opacity="0.03"/><rect x="443.69" y="187.57" width="2" height="2" rx="0" fill="#E6E6EA" opacity="0.03"/><rect x="289.69" y="247.77" width="2" height="2" rx="0" fill="#E6E6EA" opacity="0.01"/><rect x="465.88" y="793.47" width="2" height="2" rx="0" fill="#E6E6EA" opacity="0.04"/><rect x="251.16" y="540.02" width="2" height="2" rx="0" fill="#E6E6EA" opacity="0"/><rect x="297.65" y="705.2" width="2" height="2" rx="0" fill="#E6E6EA" opacity="0.02"/><rect x="840.02" y="121.46" width="2" height="2" rx="0" fill="#E6E6EA" opacity="0.03"/><rect x="638.89" y="138.01" width="2" height="2" rx="0" fill="#E6E6EA" opacity="0.02"/><rect x="783.21" y="409.82" width="2" height="2" rx="0" fill="#E6E6EA" opacity="0.04"/><rect x="250.9" y="57.67" width="2" height="2" rx="0" fill="#E6E6EA" opacity="0.03"/><rect x="351.76" y="499.26" width="2" height="2" rx="0" fill="#E6E6EA" opacity="0.04"/><rect x="104.3" y="629.11" width="2" height="2" rx="0" fill="#E6E6EA" opacity="0.04"/><rect x="1197.13" y="656.26" width="2" height="2" rx="0" fill="#E6E6EA" opacity="0.01"/><rect x="204.56" y="773.98" width="2" height="2" rx="0" fill="#E6E6EA" opacity="0.01"/><rect x="861.24" y="280.39" width="2" height="2" rx="0" fill="#E6E6EA" opacity="0.03"/><rect x="445.83" y="129.54" width="2" height="2" rx="0" fill="#E6E6EA" opacity="0.02"/><rect x="94.42" y="379.26" width="2" height="2" rx="0" fill="#E6E6EA" opacity="0.04"/><rect x="136.52" y="98.35" width="2" height="2" rx="0" fill="#E6E6EA" opacity="0.01"/><rect x="476.74" y="113.46" width="2" height="2" rx="0" fill="#E6E6EA" opacity="0.03"/><rect x="21.62" y="698.88" width="2" height="2" rx="0" fill="#E6E6EA" opacity="0.03"/><rect x="43.52" y="394.66" width="2" height="2" rx="0" fill="#E6E6EA" opacity="0.01"/><rect x="992.18" y="198.59" width="2" height="2" rx="0" fill="#E6E6EA" opacity="0.01"/><rect x="150.05" y="434.53" width="2" height="2" rx="0" fill="#E6E6EA" opacity="0.05"/><rect x="615.15" y="516.04" width="2" height="2" rx="0" fill="#E6E6EA" opacity="0.01"/><rect x="275.98" y="276.72" width="2" height="2" rx="0" fill="#E6E6EA" opacity="0.03"/><rect x="38.36" y="222.75" width="2" height="2" rx="0" fill="#E6E6EA" opacity="0.04"/><rect x="988.63" y="486.69" width="2" height="2" rx="0" fill="#E6E6EA" opacity="0.04"/><rect x="674.22" y="28.65" width="2" height="2" rx="0" fill="#E6E6EA" opacity="0.05"/><rect x="411.86" y="313.82" width="2" height="2" rx="0" fill="#E6E6EA" opacity="0"/><rect x="1148.74" y="46.1" width="2" height="2" rx="0" fill="#E6E6EA" opacity="0.02"/><rect x="1075.4" y="729.37" width="2" height="2" rx="0" fill="#E6E6EA" opacity="0.01"/><rect x="846.14" y="684.25" width="2" height="2" rx="0" fill="#E6E6EA" opacity="0.01"/><rect x="848.72" y="47.24" width="2" height="2" rx="0" fill="#E6E6EA" opacity="0.02"/><rect x="518.68" y="455.09" width="2" height="2" rx="0" fill="#E6E6EA" opacity="0.04"/><rect x="607.94" y="565.23" width="2" height="2" rx="0" fill="#E6E6EA" opacity="0.04"/><rect x="400.31" y="583.2" width="2" height="2" rx="0" fill="#E6E6EA" opacity="0.02"/><rect x="466.08" y="721.38" width="2" height="2" rx="0" fill="#E6E6EA" opacity="0.02"/><rect x="962.07" y="436.78" width="2" height="2" rx="0" fill="#E6E6EA" opacity="0.01"/><rect x="704.73" y="281.67" width="2" height="2" rx="0" fill="#E6E6EA" opacity="0.02"/><rect x="215.38" y="462.95" width="2" height="2" rx="0" fill="#E6E6EA" opacity="0"/><rect x="787.25" y="59.19" width="2" height="2" rx="0" fill="#E6E6EA" opacity="0.02"/><rect x="11.23" y="177.89" width="2" height="2" rx="0" fill="#E6E6EA" opacity="0.01"/><rect x="529.09" y="249.23" width="2" height="2" rx="0" fill="#E6E6EA" opacity="0.05"/><rect x="100.02" y="671.33" width="2" height="2" rx="0" fill="#E6E6EA" opacity="0.04"/><rect x="1149.93" y="570.63" width="2" height="2" rx="0" fill="#E6E6EA" opacity="0.01"/><rect x="114.94" y="651.21" width="2" height="2" rx="0" fill="#E6E6EA" opacity="0.01"/><rect x="48.74" y="571.34" width="2" height="2" rx="0" fill="#E6E6EA" opacity="0"/><rect x="378.55" y="753.18" width="2" height="2" rx="0" fill="#E6E6EA" opacity="0.01"/><rect x="991.44" y="781.84" width="2" height="2" rx="0" fill="#E6E6EA" opacity="0.02"/><rect x="869.82" y="467.11" width="2" height="2" rx="0" fill="#E6E6EA" opacity="0.02"/><rect x="246.58" y="476.73" width="2" height="2" rx="0" fill="#E6E6EA" opacity="0.02"/><rect x="1094.99" y="151.38" width="2" height="2" rx="0" fill="#E6E6EA" opacity="0.01"/><rect x="524" y="60.4" width="2" height="2" rx="0" fill="#E6E6EA" opacity="0"/><rect x="472.38" y="23.95" width="2" height="2" rx="0" fill="#E6E6EA" opacity="0.01"/><rect x="1007.37" y="98.51" width="2" height="2" rx="0" fill="#E6E6EA" opacity="0.03"/><rect x="248.58" y="429.15" width="2" height="2" rx="0" fill="#E6E6EA" opacity="0.05"/><rect x="831.59" y="74.15" width="2" height="2" rx="0" fill="#E6E6EA" opacity="0.04"/><rect x="815.78" y="566.1" width="2" height="2" rx="0" fill="#E6E6EA" opacity="0"/><rect x="632.77" y="322.48" width="2" height="2" rx="0" fill="#E6E6EA" opacity="0.04"/><rect x="310.3" y="765.62" width="2" height="2" rx="0" fill="#E6E6EA" opacity="0.03"/><rect x="1100.81" y="569.32" width="2" height="2" rx="0" fill="#E6E6EA" opacity="0.04"/><rect x="723.21" y="109.34" width="2" height="2" rx="0" fill="#E6E6EA" opacity="0"/><rect x="579.52" y="503.51" width="2" height="2" rx="0" fill="#E6E6EA" opacity="0"/><rect x="402.37" y="408.44" width="2" height="2" rx="0" fill="#E6E6EA" opacity="0.04"/><rect x="620.2" y="278.7" width="2" height="2" rx="0" fill="#E6E6EA" opacity="0.01"/><rect x="478.84" y="474.04" width="2" height="2" rx="0" fill="#E6E6EA" opacity="0.05"/><rect x="1095.25" y="659.07" width="2" height="2" rx="0" fill="#E6E6EA" opacity="0.01"/><rect x="98.31" y="758.94" width="2" height="2" rx="0" fill="#E6E6EA" opacity="0.02"/><rect x="424.24" y="665.58" width="2" height="2" rx="0" fill="#E6E6EA" opacity="0"/><rect x="199.35" y="89.73" width="2" height="2" rx="0" fill="#E6E6EA" opacity="0.01"/><rect x="344.2" y="663.17" width="2" height="2" rx="0" fill="#E6E6EA" opacity="0.02"/><rect x="716.49" y="32.54" width="2" height="2" rx="0" fill="#E6E6EA" opacity="0.03"/><rect x="916.42" y="189.06" width="2" height="2" rx="0" fill="#E6E6EA" opacity="0.05"/><rect x="622.51" y="617.08" width="2" height="2" rx="0" fill="#E6E6EA" opacity="0"/><rect x="659.22" y="750.38" width="2" height="2" rx="0" fill="#E6E6EA" opacity="0.03"/><rect x="1157.28" y="481.01" width="2" height="2" rx="0" fill="#E6E6EA" opacity="0.02"/><rect x="866.25" y="473.82" width="2" height="2" rx="0" fill="#E6E6EA" opacity="0.02"/><rect x="273.49" y="347.47" width="2" height="2" rx="0" fill="#E6E6EA" opacity="0.05"/><rect x="335.19" y="525.85" width="2" height="2" rx="0" fill="#E6E6EA" opacity="0.02"/><rect x="269.87" y="655.28" width="2" height="2" rx="0" fill="#E6E6EA" opacity="0.03"/><rect x="776.71" y="334.9" width="2" height="2" rx="0" fill="#E6E6EA" opacity="0.04"/><rect x="57.52" y="467.19" width="2" height="2" rx="0" fill="#E6E6EA" opacity="0.01"/><rect x="456.82" y="74.8" width="2" height="2" rx="0" fill="#E6E6EA" opacity="0.02"/><rect x="152.82" y="264.03" width="2" height="2" rx="0" fill="#E6E6EA" opacity="0.05"/><rect x="662.65" y="739.32" width="2" height="2" rx="0" fill="#E6E6EA" opacity="0.01"/><rect x="1054.33" y="635.5" width="2" height="2" rx="0" fill="#E6E6EA" opacity="0.01"/><rect x="41.01" y="291.74" width="2" height="2" rx="0" fill="#E6E6EA" opacity="0.01"/><rect x="1019.22" y="38.72" width="2" height="2" rx="0" fill="#E6E6EA" opacity="0.02"/><rect x="306.15" y="701.9" width="2" height="2" rx="0" fill="#E6E6EA" opacity="0.05"/><rect x="1144.34" y="360.8" width="2" height="2" rx="0" fill="#E6E6EA" opacity="0.05"/><rect x="1059.35" y="41.44" width="2" height="2" rx="0" fill="#E6E6EA" opacity="0.04"/><rect x="707.99" y="16.05" width="2" height="2" rx="0" fill="#E6E6EA" opacity="0.01"/><rect x="636.54" y="181.43" width="2" height="2" rx="0" fill="#E6E6EA" opacity="0.03"/><rect x="720.56" y="71.95" width="2" height="2" rx="0" fill="#E6E6EA" opacity="0.03"/><rect x="1197" y="797.25" width="2" height="2" rx="0" fill="#E6E6EA" opacity="0.01"/><rect x="874.86" y="82.54" width="2" height="2" rx="0" fill="#E6E6EA" opacity="0.01"/><rect x="378.46" y="547.76" width="2" height="2" rx="0" fill="#E6E6EA" opacity="0.04"/><rect x="1161.55" y="384.37" width="2" height="2" rx="0" fill="#E6E6EA" opacity="0"/><rect x="47.7" y="89.89" width="2" height="2" rx="0" fill="#E6E6EA" opacity="0.03"/><rect x="131.21" y="540.79" width="2" height="2" rx="0" fill="#E6E6EA" opacity="0.02"/><rect x="614.45" y="754.38" width="2" height="2" rx="0" fill="#E6E6EA" opacity="0.03"/><rect x="616.62" y="231.01" width="2" height="2" rx="0" fill="#E6E6EA" opacity="0.01"/><rect x="253.45" y="609.06" width="2" height="2" rx="0" fill="#E6E6EA" opacity="0.03"/><rect x="629.06" y="379.37" width="2" height="2" rx="0" fill="#E6E6EA" opacity="0"/><rect x="941.27" y="168.8" width="2" height="2" rx="0" fill="#E6E6EA" opacity="0.01"/><rect x="1054.64" y="105.45" width="2" height="2" rx="0" fill="#E6E6EA" opacity="0.02"/><rect x="951.57" y="382.67" width="2" height="2" rx="0" fill="#E6E6EA" opacity="0.02"/><rect x="675.75" y="403.21" width="2" height="2" rx="0" fill="#E6E6EA" opacity="0"/><rect x="93.98" y="178.52" width="2" height="2" rx="0" fill="#E6E6EA" opacity="0.03"/><rect x="171.52" y="210.06" width="2" height="2" rx="0" fill="#E6E6EA" opacity="0"/><rect x="834.2" y="485.48" width="2" height="2" rx="0" fill="#E6E6EA" opacity="0.02"/><rect x="1174.41" y="526.09" width="2" height="2" rx="0" fill="#E6E6EA" opacity="0.03"/><rect x="215.87" y="377.11" width="2" height="2" rx="0" fill="#E6E6EA" opacity="0.03"/><rect x="22.68" y="563.06" width="2" height="2" rx="0" fill="#E6E6EA" opacity="0.01"/><rect x="700.46" y="370.32" width="2" height="2" rx="0" fill="#E6E6EA" opacity="0"/><rect x="557.79" y="223.75" width="2" height="2" rx="0" fill="#E6E6EA" opacity="0.03"/><rect x="721.97" y="680.36" width="2" height="2" rx="0" fill="#E6E6EA" opacity="0.03"/><rect x="808.46" y="162.6" width="2" height="2" rx="0" fill="#E6E6EA" opacity="0"/><rect x="1075.29" y="288.84" width="2" height="2" rx="0" fill="#E6E6EA" opacity="0.01"/><rect x="426.97" y="102.98" width="2" height="2" rx="0" fill="#E6E6EA" opacity="0.02"/><rect x="800.16" y="774.49" width="2" height="2" rx="0" fill="#E6E6EA" opacity="0.05"/><rect x="476.95" y="49.05" width="2" height="2" rx="0" fill="#E6E6EA" opacity="0.02"/><rect x="1179.08" y="39.69" width="2" height="2" rx="0" fill="#E6E6EA" opacity="0.04"/><rect x="983.35" y="512.48" width="2" height="2" rx="0" fill="#E6E6EA" opacity="0.03"/><rect x="148.41" y="486.88" width="2" height="2" rx="0" fill="#E6E6EA" opacity="0.03"/><rect x="63.77" y="166.52" width="2" height="2" rx="0" fill="#E6E6EA" opacity="0.02"/><rect x="495.92" y="614.05" width="2" height="2" rx="0" fill="#E6E6EA" opacity="0.02"/><rect x="1079.74" y="522.35" width="2" height="2" rx="0" fill="#E6E6EA" opacity="0.04"/><rect x="791.99" y="381.5" width="2" height="2" rx="0" fill="#E6E6EA" opacity="0.05"/><rect x="492.43" y="748.69" width="2" height="2" rx="0" fill="#E6E6EA" opacity="0"/><rect x="490.78" y="587.33" width="2" height="2" rx="0" fill="#E6E6EA" opacity="0"/><rect x="1047.65" y="153.85" width="2" height="2" rx="0" fill="#E6E6EA" opacity="0.01"/><rect x="386.9" y="672.08" width="2" height="2" rx="0" fill="#E6E6EA" opacity="0.02"/><rect x="919.21" y="273.58" width="2" height="2" rx="0" fill="#E6E6EA" opacity="0.02"/><rect x="435.74" y="696.26" width="2" height="2" rx="0" fill="#E6E6EA" opacity="0.03"/><rect x="486.76" y="410.94" width="2" height="2" rx="0" fill="#E6E6EA" opacity="0.02"/><rect x="851.05" y="583.32" width="2" height="2" rx="0" fill="#E6E6EA" opacity="0.04"/><rect x="691.44" y="200.69" width="2" height="2" rx="0" fill="#E6E6EA" opacity="0.01"/><rect x="496.29" y="771.81" width="2" height="2" rx="0" fill="#E6E6EA" opacity="0.04"/><rect x="524.23" y="188.39" width="2" height="2" rx="0" fill="#E6E6EA" opacity="0.04"/><rect x="424.97" y="52.69" width="2" height="2" rx="0" fill="#E6E6EA" opacity="0.04"/><rect x="23.41" y="723.54" width="2" height="2" rx="0" fill="#E6E6EA" opacity="0.03"/><rect x="723.92" y="59.84" width="2" height="2" rx="0" fill="#E6E6EA" opacity="0.01"/><rect x="920.15" y="393.44" width="2" height="2" rx="0" fill="#E6E6EA" opacity="0.04"/><rect x="483.65" y="789.91" width="2" height="2" rx="0" fill="#E6E6EA" opacity="0.05"/><rect x="905.6" y="551.73" width="2" height="2" rx="0" fill="#E6E6EA" opacity="0"/><rect x="975.74" y="795.31" width="2" height="2" rx="0" fill="#E6E6EA" opacity="0.02"/><rect x="1064.26" y="721.23" width="2" height="2" rx="0" fill="#E6E6EA" opacity="0"/><rect x="526.72" y="88.65" width="2" height="2" rx="0" fill="#E6E6EA" opacity="0.02"/><rect x="1078.24" y="542.58" width="2" height="2" rx="0" fill="#E6E6EA" opacity="0.05"/><rect x="742.18" y="664.06" width="2" height="2" rx="0" fill="#E6E6EA" opacity="0"/><rect x="835.45" y="103.35" width="2" height="2" rx="0" fill="#E6E6EA" opacity="0.01"/><rect x="773.83" y="79.66" width="2" height="2" rx="0" fill="#E6E6EA" opacity="0.03"/><rect x="478.58" y="727.93" width="2" height="2" rx="0" fill="#E6E6EA" opacity="0.04"/><rect x="1047.83" y="538.77" width="2" height="2" rx="0" fill="#E6E6EA" opacity="0.04"/><rect x="706.17" y="384.7" width="2" height="2" rx="0" fill="#E6E6EA" opacity="0.05"/><rect x="1036.97" y="453.87" width="2" height="2" rx="0" fill="#E6E6EA" opacity="0.01"/><rect x="1137.1" y="13.02" width="2" height="2" rx="0" fill="#E6E6EA" opacity="0.03"/><rect x="410.59" y="512.48" width="2" height="2" rx="0" fill="#E6E6EA" opacity="0.02"/><rect x="332.57" y="698.83" width="2" height="2" rx="0" fill="#E6E6EA" opacity="0.03"/><rect x="93.95" y="664.57" width="2" height="2" rx="0" fill="#E6E6EA" opacity="0.03"/><rect x="83.59" y="568.29" width="2" height="2" rx="0" fill="#E6E6EA" opacity="0.05"/><rect x="246.87" y="481.29" width="2" height="2" rx="0" fill="#E6E6EA" opacity="0.02"/><rect x="407.65" y="333.63" width="2" height="2" rx="0" fill="#E6E6EA" opacity="0.01"/><rect x="678.4" y="436.05" width="2" height="2" rx="0" fill="#E6E6EA" opacity="0.05"/><rect x="286.41" y="333.86" width="2" height="2" rx="0" fill="#E6E6EA" opacity="0"/><rect x="679.04" y="374.81" width="2" height="2" rx="0" fill="#E6E6EA" opacity="0.01"/><rect x="57.74" y="599.03" width="2" height="2" rx="0" fill="#E6E6EA" opacity="0.05"/><rect x="952.86" y="526.32" width="2" height="2" rx="0" fill="#E6E6EA" opacity="0.01"/><rect x="223.48" y="72.65" width="2" height="2" rx="0" fill="#E6E6EA" opacity="0.01"/><rect x="473.89" y="186.66" width="2" height="2" rx="0" fill="#E6E6EA" opacity="0.03"/><rect x="1095.48" y="54.52" width="2" height="2" rx="0" fill="#E6E6EA" opacity="0.02"/><rect x="827.72" y="751.81" width="2" height="2" rx="0" fill="#E6E6EA" opacity="0.03"/><rect x="982.56" y="415.2" width="2" height="2" rx="0" fill="#E6E6EA" opacity="0.05"/><rect x="1177.22" y="773.18" width="2" height="2" rx="0" fill="#E6E6EA" opacity="0.03"/><rect x="86.46" y="703.75" width="2" height="2" rx="0" fill="#E6E6EA" opacity="0.04"/><rect x="443.3" y="672.02" width="2" height="2" rx="0" fill="#E6E6EA" opacity="0.01"/><rect x="1126.8" y="661.22" width="2" height="2" rx="0" fill="#E6E6EA" opacity="0.02"/><rect x="581.6" y="627.55" width="2" height="2" rx="0" fill="#E6E6EA" opacity="0.01"/><rect x="1166.56" y="460.88" width="2" height="2" rx="0" fill="#E6E6EA" opacity="0.03"/><rect x="866.82" y="441.77" width="2" height="2" rx="0" fill="#E6E6EA" opacity="0.01"/><rect x="559.36" y="278.45" width="2" height="2" rx="0" fill="#E6E6EA" opacity="0.04"/><rect x="530.51" y="147.19" width="2" height="2" rx="0" fill="#E6E6EA" opacity="0.02"/><rect x="218.99" y="94.95" width="2" height="2" rx="0" fill="#E6E6EA" opacity="0.04"/><rect x="1078.25" y="680.24" width="2" height="2" rx="0" fill="#E6E6EA" opacity="0"/><rect x="135.24" y="136.42" width="2" height="2" rx="0" fill="#E6E6EA" opacity="0.05"/><rect x="1142.2" y="399.33" width="2" height="2" rx="0" fill="#E6E6EA" opacity="0.02"/><rect x="401.92" y="153.82" width="2" height="2" rx="0" fill="#E6E6EA" opacity="0.03"/><rect x="967.91" y="275.98" width="2" height="2" rx="0" fill="#E6E6EA" opacity="0.05"/><rect x="400.99" y="153.29" width="2" height="2" rx="0" fill="#E6E6EA" opacity="0.02"/><rect x="1018.19" y="512.63" width="2" height="2" rx="0" fill="#E6E6EA" opacity="0.03"/><rect x="153.91" y="511.17" width="2" height="2" rx="0" fill="#E6E6EA" opacity="0"/><rect x="545.75" y="550.16" width="2" height="2" rx="0" fill="#E6E6EA" opacity="0.01"/><rect x="449.05" y="285.45" width="2" height="2" rx="0" fill="#E6E6EA" opacity="0"/><rect x="425.69" y="78.11" width="2" height="2" rx="0" fill="#E6E6EA" opacity="0"/><rect x="758.71" y="346.38" width="2" height="2" rx="0" fill="#E6E6EA" opacity="0.05"/><rect x="1146.7" y="427.64" width="2" height="2" rx="0" fill="#E6E6EA" opacity="0.01"/><rect x="173.66" y="242.38" width="2" height="2" rx="0" fill="#E6E6EA" opacity="0"/><rect x="807.42" y="441.02" width="2" height="2" rx="0" fill="#E6E6EA" opacity="0.01"/><rect x="605.08" y="551.66" width="2" height="2" rx="0" fill="#E6E6EA" opacity="0.03"/><rect x="353.17" y="393.09" width="2" height="2" rx="0" fill="#E6E6EA" opacity="0.02"/><rect x="583.85" y="285.46" width="2" height="2" rx="0" fill="#E6E6EA" opacity="0.01"/><rect x="509.78" y="726.31" width="2" height="2" rx="0" fill="#E6E6EA" opacity="0.05"/><rect x="1022.1" y="341.33" width="2" height="2" rx="0" fill="#E6E6EA" opacity="0.05"/><rect x="976.93" y="558.68" width="2" height="2" rx="0" fill="#E6E6EA" opacity="0.01"/><rect x="127.58" y="648.48" width="2" height="2" rx="0" fill="#E6E6EA" opacity="0.04"/><rect x="1173.92" y="629.94" width="2" height="2" rx="0" fill="#E6E6EA" opacity="0.01"/><rect x="218.8" y="368.54" width="2" height="2" rx="0" fill="#E6E6EA" opacity="0.03"/><rect x="1142.65" y="573.24" width="2" height="2" rx="0" fill="#E6E6EA" opacity="0"/><rect x="644.36" y="589.47" width="2" height="2" rx="0" fill="#E6E6EA" opacity="0.05"/><rect x="322.32" y="235.01" width="2" height="2" rx="0" fill="#E6E6EA" opacity="0.02"/><rect x="706.08" y="198.83" width="2" height="2" rx="0" fill="#E6E6EA" opacity="0.01"/><rect x="6.85" y="780.97" width="2" height="2" rx="0" fill="#E6E6EA" opacity="0.01"/><rect x="1023.67" y="334.44" width="2" height="2" rx="0" fill="#E6E6EA" opacity="0.01"/><rect x="11.27" y="665.51" width="2" height="2" rx="0" fill="#E6E6EA" opacity="0.03"/><rect x="593.53" y="720.89" width="2" height="2" rx="0" fill="#E6E6EA" opacity="0.05"/><rect x="75.24" y="614.37" width="2" height="2" rx="0" fill="#E6E6EA" opacity="0.01"/><rect x="1105.14" y="372.32" width="2" height="2" rx="0" fill="#E6E6EA" opacity="0"/><rect x="338.01" y="45.68" width="2" height="2" rx="0" fill="#E6E6EA" opacity="0.04"/><rect x="887.62" y="659.7" width="2" height="2" rx="0" fill="#E6E6EA" opacity="0.03"/><rect x="1038.72" y="95.35" width="2" height="2" rx="0" fill="#E6E6EA" opacity="0"/><rect x="562.64" y="167.74" width="2" height="2" rx="0" fill="#E6E6EA" opacity="0"/><rect x="1175.92" y="602.92" width="2" height="2" rx="0" fill="#E6E6EA" opacity="0.03"/><rect x="738.13" y="90.03" width="2" height="2" rx="0" fill="#E6E6EA" opacity="0.02"/><rect x="46.04" y="636.91" width="2" height="2" rx="0" fill="#E6E6EA" opacity="0.04"/><rect x="960.86" y="565.41" width="2" height="2" rx="0" fill="#E6E6EA" opacity="0.03"/>
</svg>