<svg xmlns="http://www.w3.org/2000/svg" viewBox="0 0 1200 1500" width="1200" height="1500" role="img">
<defs>
  <linearGradient id="g-bg" x1="0" y1="0" x2="0.6" y2="1">
    <stop offset="0%" stop-color="#101014"/><stop offset="100%" stop-color="#050507"/>
  </linearGradient>
  <radialGradient id="g-glow" cx="0.5" cy="0.28" r="0.75">
    <stop offset="0%" stop-color="#C6A87C" stop-opacity="0.16"/>
    <stop offset="100%" stop-color="#C6A87C" stop-opacity="0"/>
  </radialGradient>
  <linearGradient id="g-img" x1="0" y1="0" x2="1" y2="1">
    <stop offset="0%" stop-color="#35353E"/><stop offset="55%" stop-color="#232329"/><stop offset="100%" stop-color="#17171C"/>
  </linearGradient>
  <linearGradient id="g-brass" x1="0" y1="0" x2="1" y2="1">
    <stop offset="0%" stop-color="#C6A87C" stop-opacity="0.9"/><stop offset="100%" stop-color="#8C7554" stop-opacity="0.35"/>
  </linearGradient>
</defs>
<rect x="0" y="0" width="1200" height="1500" rx="0" fill="#101014"/>
<rect x="0" y="0" width="1200" height="1500" rx="0" fill="url(#g-bg)"/>
<rect x="0" y="0" width="1200" height="1500" rx="0" fill="url(#g-glow)"/>
<rect x="0" y="0" width="1200" height="1500" rx="0" fill="#101014"/><defs><linearGradient id="lt2" x1="0.2" y1="0" x2="0.8" y2="1">
      <stop offset="0%" stop-color="#A8C0A0" stop-opacity="0.28"/>
      <stop offset="60%" stop-color="#050507" stop-opacity="0.1"/>
      <stop offset="100%" stop-color="#050507" stop-opacity="0.9"/>
    </linearGradient></defs><rect x="569.65" y="636.13" width="356.88" height="311.43" rx="0" fill="#232329" opacity="0.66"/><rect x="82.74" y="1187.35" width="440.54" height="206.72" rx="0" fill="#17171C" opacity="0.66"/><rect x="127.59" y="1435.39" width="132.31" height="385.66" rx="0" fill="#17171C" opacity="0.78"/><rect x="1037.34" y="1264.92" width="102.86" height="324.52" rx="0" fill="#232329" opacity="0.53"/><rect x="881.92" y="1477.02" width="329.09" height="255.28" rx="0" fill="#17171C" opacity="0.61"/><rect x="944.79" y="852.87" width="150.69" height="275.75" rx="0" fill="#17171C" opacity="0.74"/><rect x="1009.1" y="485.23" width="469.11" height="369.88" rx="0" fill="#232329" opacity="0.62"/><rect x="425.08" y="982.13" width="261.7" height="270.34" rx="0" fill="#17171C" opacity="0.55"/><rect x="1144.76" y="389.03" width="511.05" height="431.22" rx="0" fill="#17171C" opacity="0.57"/><ellipse cx="322.45" cy="1113.84" rx="59.62" ry="170.34" fill="#050507" opacity="0.72"/><circle cx="322.45" cy="922.21" r="42.58" fill="#050507" opacity="0.75"/><ellipse cx="640.56" cy="1077.62" rx="67.73" ry="193.52" fill="#050507" opacity="0.72"/><circle cx="640.56" cy="859.91" r="48.38" fill="#050507" opacity="0.75"/><rect x="704.97" y="381.67" width="197.26" height="154.98" rx="2" fill="#0A0A0D" opacity="0.85"/><rect x="712.97" y="389.67" width="101.01" height="5" rx="2" fill="#A8C0A0" opacity="0.7"/><rect x="712.97" y="403.67" width="109.09" height="4" rx="2" fill="#35353E" opacity="0.6"/><rect x="651.19" y="100.84" width="166.13" height="204.87" rx="2" fill="#0A0A0D" opacity="0.85"/><rect x="659.19" y="108.84" width="107.71" height="5" rx="2" fill="#A8C0A0" opacity="0.7"/><rect x="659.19" y="122.84" width="105.44" height="4" rx="2" fill="#35353E" opacity="0.6"/><rect x="389.67" y="380.05" width="279.75" height="130.07" rx="2" fill="#0A0A0D" opacity="0.85"/><rect x="397.67" y="388.05" width="115.84" height="5" rx="2" fill="#A8C0A0" opacity="0.7"/><rect x="397.67" y="402.05" width="114.11" height="4" rx="2" fill="#35353E" opacity="0.6"/><rect x="930.62" y="343.56" width="186.38" height="112.25" rx="2" fill="#0A0A0D" opacity="0.85"/><rect x="938.62" y="351.56" width="66.06" height="5" rx="2" fill="#A8C0A0" opacity="0.7"/><rect x="938.62" y="365.56" width="98.14" height="4" rx="2" fill="#35353E" opacity="0.6"/><rect x="533.58" y="680.06" width="180.7" height="122.14" rx="2" fill="#0A0A0D" opacity="0.85"/><rect x="541.58" y="688.06" width="76.03" height="5" rx="2" fill="#A8C0A0" opacity="0.7"/><rect x="541.58" y="702.06" width="141.99" height="4" rx="2" fill="#35353E" opacity="0.6"/><rect x="0" y="0" width="1200" height="1500" rx="0" fill="url(#lt2)"/><rect x="706.75" y="879.72" width="2" height="2" rx="0" fill="#E6E6EA" opacity="0"/><rect x="221.07" y="503.95" width="2" height="2" rx="0" fill="#E6E6EA" opacity="0.03"/><rect x="717.21" y="276.6" width="2" height="2" rx="0" fill="#E6E6EA" opacity="0.01"/><rect x="52.51" y="568.59" width="2" height="2" rx="0" fill="#E6E6EA" opacity="0.04"/><rect x="510.43" y="94.8" width="2" height="2" rx="0" fill="#E6E6EA" opacity="0.01"/><rect x="269.37" y="1090.41" width="2" height="2" rx="0" fill="#E6E6EA" opacity="0.03"/><rect x="1112.58" y="947.3" width="2" height="2" rx="0" fill="#E6E6EA" opacity="0.01"/><rect x="95.7" y="546.53" width="2" height="2" rx="0" fill="#E6E6EA" opacity="0.04"/><rect x="970.28" y="813.3" width="2" height="2" rx="0" fill="#E6E6EA" opacity="0.04"/><rect x="916.07" y="503.91" width="2" height="2" rx="0" fill="#E6E6EA" opacity="0.01"/><rect x="376.24" y="742.57" width="2" height="2" rx="0" fill="#E6E6EA" opacity="0.01"/><rect x="1058.81" y="774.1" width="2" height="2" rx="0" fill="#E6E6EA" opacity="0.03"/><rect x="805.73" y="1291.17" width="2" height="2" rx="0" fill="#E6E6EA" opacity="0.01"/><rect x="472.2" y="918.59" width="2" height="2" rx="0" fill="#E6E6EA" opacity="0.02"/><rect x="1040" y="22.03" width="2" height="2" rx="0" fill="#E6E6EA" opacity="0.04"/><rect x="182.89" y="822.87" width="2" height="2" rx="0" fill="#E6E6EA" opacity="0.05"/><rect x="470.18" y="489.78" width="2" height="2" rx="0" fill="#E6E6EA" opacity="0.04"/><rect x="1.58" y="261.21" width="2" height="2" rx="0" fill="#E6E6EA" opacity="0.04"/><rect x="402.19" y="109.16" width="2" height="2" rx="0" fill="#E6E6EA" opacity="0.01"/><rect x="365.11" y="944" width="2" height="2" rx="0" fill="#E6E6EA" opacity="0.01"/><rect x="401.76" y="1491.53" width="2" height="2" rx="0" fill="#E6E6EA" opacity="0"/><rect x="756.39" y="1314.79" width="2" height="2" rx="0" fill="#E6E6EA" opacity="0.04"/><rect x="854.53" y="554.65" width="2" height="2" rx="0" fill="#E6E6EA" opacity="0.04"/><rect x="1155.68" y="339.99" width="2" height="2" rx="0" fill="#E6E6EA" opacity="0.02"/><rect x="374.39" y="982.53" width="2" height="2" rx="0" fill="#E6E6EA" opacity="0.05"/><rect x="603.66" y="1206.3" width="2" height="2" rx="0" fill="#E6E6EA" opacity="0.01"/><rect x="535.67" y="658.68" width="2" height="2" rx="0" fill="#E6E6EA" opacity="0.02"/><rect x="316.34" y="894.29" width="2" height="2" rx="0" fill="#E6E6EA" opacity="0.01"/><rect x="682.59" y="462.16" width="2" height="2" rx="0" fill="#E6E6EA" opacity="0.02"/><rect x="1084.23" y="823.28" width="2" height="2" rx="0" fill="#E6E6EA" opacity="0.03"/><rect x="699.53" y="663.33" width="2" height="2" rx="0" fill="#E6E6EA" opacity="0.02"/><rect x="508.7" y="1210.65" width="2" height="2" rx="0" fill="#E6E6EA" opacity="0.05"/><rect x="620.53" y="7.08" width="2" height="2" rx="0" fill="#E6E6EA" opacity="0.02"/><rect x="382.93" y="360.65" width="2" height="2" rx="0" fill="#E6E6EA" opacity="0.05"/><rect x="1193.24" y="450.78" width="2" height="2" rx="0" fill="#E6E6EA" opacity="0.04"/><rect x="665.23" y="142.9" width="2" height="2" rx="0" fill="#E6E6EA" opacity="0.01"/><rect x="288.71" y="975.66" width="2" height="2" rx="0" fill="#E6E6EA" opacity="0.05"/><rect x="584" y="630.59" width="2" height="2" rx="0" fill="#E6E6EA" opacity="0.03"/><rect x="442.69" y="406.32" width="2" height="2" rx="0" fill="#E6E6EA" opacity="0.03"/><rect x="458.99" y="879.8" width="2" height="2" rx="0" fill="#E6E6EA" opacity="0.04"/><rect x="646.61" y="457.25" width="2" height="2" rx="0" fill="#E6E6EA" opacity="0.02"/><rect x="698.76" y="1172.23" width="2" height="2" rx="0" fill="#E6E6EA" opacity="0.02"/><rect x="120.79" y="1167" width="2" height="2" rx="0" fill="#E6E6EA" opacity="0.04"/><rect x="1137.23" y="1347.72" width="2" height="2" rx="0" fill="#E6E6EA" opacity="0.04"/><rect x="772.94" y="1056.11" width="2" height="2" rx="0" fill="#E6E6EA" opacity="0.02"/><rect x="1039.99" y="1302.78" width="2" height="2" rx="0" fill="#E6E6EA" opacity="0.01"/><rect x="560.89" y="1198.07" width="2" height="2" rx="0" fill="#E6E6EA" opacity="0"/><rect x="132.07" y="1081.91" width="2" height="2" rx="0" fill="#E6E6EA" opacity="0.02"/><rect x="553.97" y="1274.42" width="2" height="2" rx="0" fill="#E6E6EA" opacity="0.02"/><rect x="858" y="1445.95" width="2" height="2" rx="0" fill="#E6E6EA" opacity="0.02"/><rect x="1025.71" y="1422.79" width="2" height="2" rx="0" fill="#E6E6EA" opacity="0.04"/><rect x="676.17" y="485.49" width="2" height="2" rx="0" fill="#E6E6EA" opacity="0.04"/><rect x="794.72" y="1064.03" width="2" height="2" rx="0" fill="#E6E6EA" opacity="0"/><rect x="1056.16" y="535.38" width="2" height="2" rx="0" fill="#E6E6EA" opacity="0.04"/><rect x="512.12" y="954.18" width="2" height="2" rx="0" fill="#E6E6EA" opacity="0.01"/><rect x="1051.74" y="754.79" width="2" height="2" rx="0" fill="#E6E6EA" opacity="0.01"/><rect x="1117.13" y="535.42" width="2" height="2" rx="0" fill="#E6E6EA" opacity="0.01"/><rect x="412.78" y="421.84" width="2" height="2" rx="0" fill="#E6E6EA" opacity="0.03"/><rect x="779.28" y="796.77" width="2" height="2" rx="0" fill="#E6E6EA" opacity="0.03"/><rect x="551.62" y="1353.69" width="2" height="2" rx="0" fill="#E6E6EA" opacity="0.03"/><rect x="171.15" y="100.95" width="2" height="2" rx="0" fill="#E6E6EA" opacity="0.01"/><rect x="951.13" y="466.32" width="2" height="2" rx="0" fill="#E6E6EA" opacity="0.05"/><rect x="440.94" y="1032.99" width="2" height="2" rx="0" fill="#E6E6EA" opacity="0.01"/><rect x="428.35" y="557.95" width="2" height="2" rx="0" fill="#E6E6EA" opacity="0.03"/><rect x="144.55" y="917.44" width="2" height="2" rx="0" fill="#E6E6EA" opacity="0.03"/><rect x="1073.98" y="1499.05" width="2" height="2" rx="0" fill="#E6E6EA" opacity="0.02"/><rect x="342.77" y="1254.09" width="2" height="2" rx="0" fill="#E6E6EA" opacity="0.03"/><rect x="878.43" y="203.43" width="2" height="2" rx="0" fill="#E6E6EA" opacity="0.02"/><rect x="49.84" y="124" width="2" height="2" rx="0" fill="#E6E6EA" opacity="0.02"/><rect x="156.18" y="736.76" width="2" height="2" rx="0" fill="#E6E6EA" opacity="0.01"/><rect x="984.2" y="894.46" width="2" height="2" rx="0" fill="#E6E6EA" opacity="0.01"/><rect x="204.43" y="396.71" width="2" height="2" rx="0" fill="#E6E6EA" opacity="0"/><rect x="319.69" y="686.59" width="2" height="2" rx="0" fill="#E6E6EA" opacity="0"/><rect x="611.34" y="591.85" width="2" height="2" rx="0" fill="#E6E6EA" opacity="0.03"/><rect x="262.4" y="155.99" width="2" height="2" rx="0" fill="#E6E6EA" opacity="0.04"/><rect x="803.35" y="834.78" width="2" height="2" rx="0" fill="#E6E6EA" opacity="0.02"/><rect x="367.06" y="1453.28" width="2" height="2" rx="0" fill="#E6E6EA" opacity="0.03"/><rect x="1098.95" y="1167.37" width="2" height="2" rx="0" fill="#E6E6EA" opacity="0.05"/><rect x="408.82" y="1217.14" width="2" height="2" rx="0" fill="#E6E6EA" opacity="0.04"/><rect x="764.24" y="1307.05" width="2" height="2" rx="0" fill="#E6E6EA" opacity="0"/><rect x="1008.85" y="1108.08" width="2" height="2" rx="0" fill="#E6E6EA" opacity="0.04"/><rect x="651.41" y="844.94" width="2" height="2" rx="0" fill="#E6E6EA" opacity="0.01"/><rect x="295.11" y="315.17" width="2" height="2" rx="0" fill="#E6E6EA" opacity="0.02"/><rect x="298.88" y="35.98" width="2" height="2" rx="0" fill="#E6E6EA" opacity="0.01"/><rect x="74.26" y="14.45" width="2" height="2" rx="0" fill="#E6E6EA" opacity="0.04"/><rect x="680.67" y="450.89" width="2" height="2" rx="0" fill="#E6E6EA" opacity="0"/><rect x="1027.08" y="243.31" width="2" height="2" rx="0" fill="#E6E6EA" opacity="0.01"/><rect x="408.27" y="280.47" width="2" height="2" rx="0" fill="#E6E6EA" opacity="0.03"/><rect x="1118.38" y="1369.27" width="2" height="2" rx="0" fill="#E6E6EA" opacity="0.01"/><rect x="961.66" y="1310.41" width="2" height="2" rx="0" fill="#E6E6EA" opacity="0.03"/><rect x="1181.13" y="1116.1" width="2" height="2" rx="0" fill="#E6E6EA" opacity="0.03"/><rect x="979.5" y="1154.89" width="2" height="2" rx="0" fill="#E6E6EA" opacity="0.01"/><rect x="1109.04" y="143.46" width="2" height="2" rx="0" fill="#E6E6EA" opacity="0.02"/><rect x="586.65" y="724" width="2" height="2" rx="0" fill="#E6E6EA" opacity="0.01"/><rect x="877.09" y="486.31" width="2" height="2" rx="0" fill="#E6E6EA" opacity="0.05"/><rect x="747.29" y="566.21" width="2" height="2" rx="0" fill="#E6E6EA" opacity="0.01"/><rect x="172.38" y="500.86" width="2" height="2" rx="0" fill="#E6E6EA" opacity="0"/><rect x="65.86" y="539.67" width="2" height="2" rx="0" fill="#E6E6EA" opacity="0.04"/><rect x="113.95" y="1416.53" width="2" height="2" rx="0" fill="#E6E6EA" opacity="0.04"/><rect x="241.42" y="376.85" width="2" height="2" rx="0" fill="#E6E6EA" opacity="0.02"/><rect x="234.32" y="1255.36" width="2" height="2" rx="0" fill="#E6E6EA" opacity="0.05"/><rect x="522.45" y="499.8" width="2" height="2" rx="0" fill="#E6E6EA" opacity="0.01"/><rect x="112.02" y="1343.24" width="2" height="2" rx="0" fill="#E6E6EA" opacity="0.03"/><rect x="55.5" y="411.88" width="2" height="2" rx="0" fill="#E6E6EA" opacity="0.05"/><rect x="492.16" y="138.01" width="2" height="2" rx="0" fill="#E6E6EA" opacity="0.02"/><rect x="1079.79" y="586.6" width="2" height="2" rx="0" fill="#E6E6EA" opacity="0.04"/><rect x="984.42" y="908.13" width="2" height="2" rx="0" fill="#E6E6EA" opacity="0.02"/><rect x="392.47" y="1352.7" width="2" height="2" rx="0" fill="#E6E6EA" opacity="0.03"/><rect x="684.24" y="539.93" width="2" height="2" rx="0" fill="#E6E6EA" opacity="0.03"/><rect x="130.51" y="1286.96" width="2" height="2" rx="0" fill="#E6E6EA" opacity="0.05"/><rect x="603.68" y="1476.2" width="2" height="2" rx="0" fill="#E6E6EA" opacity="0.01"/><rect x="975.29" y="1208.48" width="2" height="2" rx="0" fill="#E6E6EA" opacity="0.03"/><rect x="162.37" y="227.88" width="2" height="2" rx="0" fill="#E6E6EA" opacity="0.02"/><rect x="711.84" y="1346.68" width="2" height="2" rx="0" fill="#E6E6EA" opacity="0"/><rect x="343.1" y="663.24" width="2" height="2" rx="0" fill="#E6E6EA" opacity="0.02"/><rect x="799.11" y="374.5" width="2" height="2" rx="0" fill="#E6E6EA" opacity="0.01"/><rect x="486.26" y="799.37" width="2" height="2" rx="0" fill="#E6E6EA" opacity="0.03"/><rect x="623.59" y="1364.07" width="2" height="2" rx="0" fill="#E6E6EA" opacity="0.05"/><rect x="64.95" y="925.87" width="2" height="2" rx="0" fill="#E6E6EA" opacity="0"/><rect x="320.64" y="1346.19" width="2" height="2" rx="0" fill="#E6E6EA" opacity="0.03"/><rect x="1111.35" y="556.74" width="2" height="2" rx="0" fill="#E6E6EA" opacity="0.01"/><rect x="41.9" y="1289.42" width="2" height="2" rx="0" fill="#E6E6EA" opacity="0.02"/><rect x="709.83" y="1171.6" width="2" height="2" rx="0" fill="#E6E6EA" opacity="0.02"/><rect x="382.08" y="610.38" width="2" height="2" rx="0" fill="#E6E6EA" opacity="0"/><rect x="256.29" y="823.72" width="2" height="2" rx="0" fill="#E6E6EA" opacity="0.03"/><rect x="1141.05" y="529.93" width="2" height="2" rx="0" fill="#E6E6EA" opacity="0.03"/><rect x="1199.03" y="575.43" width="2" height="2" rx="0" fill="#E6E6EA" opacity="0.03"/><rect x="978.72" y="1246.92" width="2" height="2" rx="0" fill="#E6E6EA" opacity="0.01"/><rect x="67.14" y="600.53" width="2" height="2" rx="0" fill="#E6E6EA" opacity="0.04"/><rect x="814.51" y="1233.15" width="2" height="2" rx="0" fill="#E6E6EA" opacity="0"/><rect x="288.65" y="1264.67" width="2" height="2" rx="0" fill="#E6E6EA" opacity="0.01"/><rect x="23.59" y="549.05" width="2" height="2" rx="0" fill="#E6E6EA" opacity="0.05"/><rect x="760.85" y="575.24" width="2" height="2" rx="0" fill="#E6E6EA" opacity="0.02"/><rect x="674.1" y="511.28" width="2" height="2" rx="0" fill="#E6E6EA" opacity="0.04"/><rect x="171.58" y="111.84" width="2" height="2" rx="0" fill="#E6E6EA" opacity="0"/><rect x="896.81" y="837.06" width="2" height="2" rx="0" fill="#E6E6EA" opacity="0.05"/><rect x="1193.11" y="804.82" width="2" height="2" rx="0" fill="#E6E6EA" opacity="0.04"/><rect x="218.4" y="1289" width="2" height="2" rx="0" fill="#E6E6EA" opacity="0.04"/><rect x="561.01" y="537.72" width="2" height="2" rx="0" fill="#E6E6EA" opacity="0.05"/><rect x="274.02" y="1286.94" width="2" height="2" rx="0" fill="#E6E6EA" opacity="0.04"/><rect x="181.97" y="980.17" width="2" height="2" rx="0" fill="#E6E6EA" opacity="0.02"/><rect x="925.79" y="779.04" width="2" height="2" rx="0" fill="#E6E6EA" opacity="0.04"/><rect x="552.06" y="27.22" width="2" height="2" rx="0" fill="#E6E6EA" opacity="0.05"/><rect x="304.19" y="680.09" width="2" height="2" rx="0" fill="#E6E6EA" opacity="0.01"/><rect x="1055.98" y="1372.32" width="2" height="2" rx="0" fill="#E6E6EA" opacity="0.02"/><rect x="197.88" y="617.11" width="2" height="2" rx="0" fill="#E6E6EA" opacity="0.02"/><rect x="838.1" y="469.09" width="2" height="2" rx="0" fill="#E6E6EA" opacity="0"/><rect x="133.58" y="1405.05" width="2" height="2" rx="0" fill="#E6E6EA" opacity="0.01"/><rect x="493.98" y="985.77" width="2" height="2" rx="0" fill="#E6E6EA" opacity="0.01"/><rect x="210.97" y="1153.43" width="2" height="2" rx="0" fill="#E6E6EA" opacity="0.04"/><rect x="501.28" y="1300.81" width="2" height="2" rx="0" fill="#E6E6EA" opacity="0.01"/><rect x="295.77" y="657.28" width="2" height="2" rx="0" fill="#E6E6EA" opacity="0.03"/><rect x="581.36" y="591.8" width="2" height="2" rx="0" fill="#E6E6EA" opacity="0.05"/><rect x="1006.17" y="474.91" width="2" height="2" rx="0" fill="#E6E6EA" opacity="0.01"/><rect x="1151.21" y="1041.29" width="2" height="2" rx="0" fill="#E6E6EA" opacity="0.02"/><rect x="840.25" y="602.71" width="2" height="2" rx="0" fill="#E6E6EA" opacity="0.01"/><rect x="1144.93" y="1027.41" width="2" height="2" rx="0" fill="#E6E6EA" opacity="0.04"/><rect x="1036.02" y="459.97" width="2" height="2" rx="0" fill="#E6E6EA" opacity="0.04"/><rect x="616.64" y="868.13" width="2" height="2" rx="0" fill="#E6E6EA" opacity="0"/><rect x="786.25" y="187" width="2" height="2" rx="0" fill="#E6E6EA" opacity="0.01"/><rect x="742.73" y="927.56" width="2" height="2" rx="0" fill="#E6E6EA" opacity="0"/><rect x="904.94" y="580.3" width="2" height="2" rx="0" fill="#E6E6EA" opacity="0"/><rect x="976.44" y="1336.17" width="2" height="2" rx="0" fill="#E6E6EA" opacity="0.02"/><rect x="848.32" y="689.41" width="2" height="2" rx="0" fill="#E6E6EA" opacity="0.03"/><rect x="964.83" y="306.19" width="2" height="2" rx="0" fill="#E6E6EA" opacity="0.04"/><rect x="223.35" y="318.7" width="2" height="2" rx="0" fill="#E6E6EA" opacity="0.04"/><rect x="727.65" y="426.55" width="2" height="2" rx="0" fill="#E6E6EA" opacity="0.02"/><rect x="324.31" y="399.25" width="2" height="2" rx="0" fill="#E6E6EA" opacity="0.02"/><rect x="232.53" y="1163.02" width="2" height="2" rx="0" fill="#E6E6EA" opacity="0.01"/><rect x="1020.8" y="261.01" width="2" height="2" rx="0" fill="#E6E6EA" opacity="0.03"/><rect x="98.02" y="1291.02" width="2" height="2" rx="0" fill="#E6E6EA" opacity="0.02"/><rect x="590.35" y="535.01" width="2" height="2" rx="0" fill="#E6E6EA" opacity="0.03"/><rect x="1080.69" y="23.27" width="2" height="2" rx="0" fill="#E6E6EA" opacity="0.04"/><rect x="383.27" y="120.71" width="2" height="2" rx="0" fill="#E6E6EA" opacity="0.02"/><rect x="872.35" y="1388.48" width="2" height="2" rx="0" fill="#E6E6EA" opacity="0.02"/><rect x="992.5" y="1134.21" width="2" height="2" rx="0" fill="#E6E6EA" opacity="0.02"/><rect x="574.76" y="1461" width="2" height="2" rx="0" fill="#E6E6EA" opacity="0.05"/><rect x="714.48" y="1239.74" width="2" height="2" rx="0" fill="#E6E6EA" opacity="0.04"/><rect x="584.98" y="258.51" width="2" height="2" rx="0" fill="#E6E6EA" opacity="0.03"/><rect x="178.44" y="265.78" width="2" height="2" rx="0" fill="#E6E6EA" opacity="0.05"/><rect x="165.08" y="139.53" width="2" height="2" rx="0" fill="#E6E6EA" opacity="0.02"/><rect x="758.91" y="349.62" width="2" height="2" rx="0" fill="#E6E6EA" opacity="0.02"/><rect x="806.59" y="1380.15" width="2" height="2" rx="0" fill="#E6E6EA" opacity="0"/><rect x="172.13" y="1318.07" width="2" height="2" rx="0" fill="#E6E6EA" opacity="0.03"/><rect x="793.96" y="61.33" width="2" height="2" rx="0" fill="#E6E6EA" opacity="0.01"/><rect x="929.3" y="960.21" width="2" height="2" rx="0" fill="#E6E6EA" opacity="0.04"/><rect x="893.56" y="145.26" width="2" height="2" rx="0" fill="#E6E6EA" opacity="0.03"/><rect x="883.09" y="637.41" width="2" height="2" rx="0" fill="#E6E6EA" opacity="0.05"/><rect x="167.13" y="1143.22" width="2" height="2" rx="0" fill="#E6E6EA" opacity="0.02"/><rect x="588.48" y="255.88" width="2" height="2" rx="0" fill="#E6E6EA" opacity="0"/><rect x="1104.91" y="256.14" width="2" height="2" rx="0" fill="#E6E6EA" opacity="0.05"/><rect x="451.2" y="730.53" width="2" height="2" rx="0" fill="#E6E6EA" opacity="0.01"/><rect x="177.47" y="890.51" width="2" height="2" rx="0" fill="#E6E6EA" opacity="0.04"/><rect x="594.63" y="382.28" width="2" height="2" rx="0" fill="#E6E6EA" opacity="0.02"/><rect x="380.36" y="331.23" width="2" height="2" rx="0" fill="#E6E6EA" opacity="0.02"/><rect x="474.98" y="678.54" width="2" height="2" rx="0" fill="#E6E6EA" opacity="0.04"/><rect x="1119.3" y="1164.42" width="2" height="2" rx="0" fill="#E6E6EA" opacity="0.05"/><rect x="264.19" y="221.6" width="2" height="2" rx="0" fill="#E6E6EA" opacity="0.05"/><rect x="889.01" y="554.05" width="2" height="2" rx="0" fill="#E6E6EA" opacity="0.05"/><rect x="896.98" y="1324.62" width="2" height="2" rx="0" fill="#E6E6EA" opacity="0.05"/><rect x="854.6" y="600.66" width="2" height="2" rx="0" fill="#E6E6EA" opacity="0.01"/><rect x="166.99" y="1169.75" width="2" height="2" rx="0" fill="#E6E6EA" opacity="0.03"/><rect x="582.19" y="81.93" width="2" height="2" rx="0" fill="#E6E6EA" opacity="0"/><rect x="486.4" y="571.58" width="2" height="2" rx="0" fill="#E6E6EA" opacity="0.02"/><rect x="512.71" y="1391.22" width="2" height="2" rx="0" fill="#E6E6EA" opacity="0.01"/><rect x="879.91" y="1311.08" width="2" height="2" rx="0" fill="#E6E6EA" opacity="0.01"/><rect x="430.04" y="122.98" width="2" height="2" rx="0" fill="#E6E6EA" opacity="0.05"/><rect x="559.77" y="31.33" width="2" height="2" rx="0" fill="#E6E6EA" opacity="0"/><rect x="750.96" y="1278.55" width="2" height="2" rx="0" fill="#E6E6EA" opacity="0.03"/><rect x="557.18" y="1054.63" width="2" height="2" rx="0" fill="#E6E6EA" opacity="0.04"/><rect x="850.64" y="1463.3" width="2" height="2" rx="0" fill="#E6E6EA" opacity="0.04"/><rect x="334.5" y="1405.76" width="2" height="2" rx="0" fill="#E6E6EA" opacity="0"/><rect x="979.29" y="1108.2" width="2" height="2" rx="0" fill="#E6E6EA" opacity="0"/><rect x="299.68" y="413.24" width="2" height="2" rx="0" fill="#E6E6EA" opacity="0.01"/><rect x="303.46" y="365.91" width="2" height="2" rx="0" fill="#E6E6EA" opacity="0.04"/><rect x="324.98" y="854.53" width="2" height="2" rx="0" fill="#E6E6EA" opacity="0.04"/><rect x="264.1" y="1487.73" width="2" height="2" rx="0" fill="#E6E6EA" opacity="0.03"/><rect x="735.34" y="57.2" width="2" height="2" rx="0" fill="#E6E6EA" opacity="0.04"/><rect x="684.55" y="942.74" width="2" height="2" rx="0" fill="#E6E6EA" opacity="0"/><rect x="35.41" y="1399.76" width="2" height="2" rx="0" fill="#E6E6EA" opacity="0.04"/><rect x="1125.7" y="529.56" width="2" height="2" rx="0" fill="#E6E6EA" opacity="0.02"/><rect x="562.76" y="1476.85" width="2" height="2" rx="0" fill="#E6E6EA" opacity="0.03"/><rect x="506.06" y="1209.77" width="2" height="2" rx="0" fill="#E6E6EA" opacity="0.01"/><rect x="1003.51" y="47.6" width="2" height="2" rx="0" fill="#E6E6EA" opacity="0.02"/><rect x="1098.2" y="382.74" width="2" height="2" rx="0" fill="#E6E6EA" opacity="0.02"/><rect x="724.59" y="781.27" width="2" height="2" rx="0" fill="#E6E6EA" opacity="0.05"/><rect x="145.95" y="278.75" width="2" height="2" rx="0" fill="#E6E6EA" opacity="0.01"/><rect x="757.08" y="871.52" width="2" height="2" rx="0" fill="#E6E6EA" opacity="0"/><rect x="1092.34" y="224.7" width="2" height="2" rx="0" fill="#E6E6EA" opacity="0.03"/><rect x="530.66" y="420.84" width="2" height="2" rx="0" fill="#E6E6EA" opacity="0.02"/><rect x="617.07" y="913.92" width="2" height="2" rx="0" fill="#E6E6EA" opacity="0.01"/><rect x="936.21" y="595.98" width="2" height="2" rx="0" fill="#E6E6EA" opacity="0.04"/><rect x="516.45" y="565.43" width="2" height="2" rx="0" fill="#E6E6EA" opacity="0.02"/><rect x="968" y="976.36" width="2" height="2" rx="0" fill="#E6E6EA" opacity="0.04"/><rect x="1086.04" y="1392.86" width="2" height="2" rx="0" fill="#E6E6EA" opacity="0.02"/><rect x="42.24" y="969.87" width="2" height="2" rx="0" fill="#E6E6EA" opacity="0"/><rect x="677.31" y="449.49" width="2" height="2" rx="0" fill="#E6E6EA" opacity="0.02"/><rect x="994.66" y="87.37" width="2" height="2" rx="0" fill="#E6E6EA" opacity="0.05"/><rect x="171.62" y="1080.27" width="2" height="2" rx="0" fill="#E6E6EA" opacity="0"/><rect x="1076.62" y="1475.06" width="2" height="2" rx="0" fill="#E6E6EA" opacity="0.03"/><rect x="713.3" y="582.11" width="2" height="2" rx="0" fill="#E6E6EA" opacity="0.02"/><rect x="456.49" y="720.6" width="2" height="2" rx="0" fill="#E6E6EA" opacity="0"/><rect x="818.74" y="274.17" width="2" height="2" rx="0" fill="#E6E6EA" opacity="0.05"/><rect x="526.81" y="624.02" width="2" height="2" rx="0" fill="#E6E6EA" opacity="0.04"/><rect x="237.74" y="1141.09" width="2" height="2" rx="0" fill="#E6E6EA" opacity="0.03"/><rect x="530.38" y="691.08" width="2" height="2" rx="0" fill="#E6E6EA" opacity="0.02"/><rect x="1149.37" y="1295.16" width="2" height="2" rx="0" fill="#E6E6EA" opacity="0.04"/><rect x="855.87" y="285.52" width="2" height="2" rx="0" fill="#E6E6EA" opacity="0.01"/><rect x="234.83" y="16.73" width="2" height="2" rx="0" fill="#E6E6EA" opacity="0.02"/><rect x="839.64" y="1352.3" width="2" height="2" rx="0" fill="#E6E6EA" opacity="0"/><rect x="869.32" y="849.16" width="2" height="2" rx="0" fill="#E6E6EA" opacity="0.03"/><rect x="910.04" y="1229.5" width="2" height="2" rx="0" fill="#E6E6EA" opacity="0.01"/><rect x="1118.9" y="122.43" width="2" height="2" rx="0" fill="#E6E6EA" opacity="0.04"/><rect x="1077.11" y="1268.24" width="2" height="2" rx="0" fill="#E6E6EA" opacity="0.01"/><rect x="675.47" y="795.74" width="2" height="2" rx="0" fill="#E6E6EA" opacity="0.05"/><rect x="840.22" y="1447.01" width="2" height="2" rx="0" fill="#E6E6EA" opacity="0.01"/><rect x="449.33" y="360.71" width="2" height="2" rx="0" fill="#E6E6EA" opacity="0.03"/><rect x="140.35" y="1014.98" width="2" height="2" rx="0" fill="#E6E6EA" opacity="0.03"/><rect x="110.9" y="362.61" width="2" height="2" rx="0" fill="#E6E6EA" opacity="0.05"/><rect x="207.8" y="579.33" width="2" height="2" rx="0" fill="#E6E6EA" opacity="0.01"/><rect x="687.34" y="1115.67" width="2" height="2" rx="0" fill="#E6E6EA" opacity="0.03"/><rect x="935.55" y="133.67" width="2" height="2" rx="0" fill="#E6E6EA" opacity="0.03"/><rect x="662.5" y="1331.55" width="2" height="2" rx="0" fill="#E6E6EA" opacity="0.03"/><rect x="128.35" y="981.15" width="2" height="2" rx="0" fill="#E6E6EA" opacity="0.03"/><rect x="236.42" y="321.61" width="2" height="2" rx="0" fill="#E6E6EA" opacity="0.03"/><rect x="1064" y="229.2" width="2" height="2" rx="0" fill="#E6E6EA" opacity="0"/><rect x="668.24" y="302.13" width="2" height="2" rx="0" fill="#E6E6EA" opacity="0.01"/><rect x="90.95" y="1307.39" width="2" height="2" rx="0" fill="#E6E6EA" opacity="0.04"/><rect x="949.97" y="223.85" width="2" height="2" rx="0" fill="#E6E6EA" opacity="0.01"/><rect x="584.38" y="1049.97" width="2" height="2" rx="0" fill="#E6E6EA" opacity="0.03"/><rect x="195.85" y="95.06" width="2" height="2" rx="0" fill="#E6E6EA" opacity="0"/><rect x="72" y="621.28" width="2" height="2" rx="0" fill="#E6E6EA" opacity="0.01"/><rect x="121.51" y="1178.26" width="2" height="2" rx="0" fill="#E6E6EA" opacity="0"/><rect x="807.28" y="1041.48" width="2" height="2" rx="0" fill="#E6E6EA" opacity="0.02"/><rect x="942.05" y="347.13" width="2" height="2" rx="0" fill="#E6E6EA" opacity="0.03"/><rect x="80.56" y="393.48" width="2" height="2" rx="0" fill="#E6E6EA" opacity="0.04"/><rect x="609.15" y="1062.15" width="2" height="2" rx="0" fill="#E6E6EA" opacity="0"/><rect x="25.96" y="886.78" width="2" height="2" rx="0" fill="#E6E6EA" opacity="0"/><rect x="75.68" y="1487.24" width="2" height="2" rx="0" fill="#E6E6EA" opacity="0"/><rect x="327.8" y="75.47" width="2" height="2" rx="0" fill="#E6E6EA" opacity="0.03"/><rect x="751.97" y="1403.87" width="2" height="2" rx="0" fill="#E6E6EA" opacity="0.05"/><rect x="289.92" y="923.22" width="2" height="2" rx="0" fill="#E6E6EA" opacity="0.02"/><rect x="917.6" y="1143.61" width="2" height="2" rx="0" fill="#E6E6EA" opacity="0.04"/><rect x="193.26" y="1205.13" width="2" height="2" rx="0" fill="#E6E6EA" opacity="0"/><rect x="693.13" y="1318.69" width="2" height="2" rx="0" fill="#E6E6EA" opacity="0.03"/><rect x="554.4" y="1160.1" width="2" height="2" rx="0" fill="#E6E6EA" opacity="0.03"/><rect x="166.77" y="1061.21" width="2" height="2" rx="0" fill="#E6E6EA" opacity="0.02"/><rect x="338.22" y="98.37" width="2" height="2" rx="0" fill="#E6E6EA" opacity="0.01"/><rect x="830.82" y="466.94" width="2" height="2" rx="0" fill="#E6E6EA" opacity="0.04"/><rect x="520.44" y="316.18" width="2" height="2" rx="0" fill="#E6E6EA" opacity="0.04"/><rect x="54.19" y="1444.44" width="2" height="2" rx="0" fill="#E6E6EA" opacity="0.02"/><rect x="229.93" y="488.38" width="2" height="2" rx="0" fill="#E6E6EA" opacity="0.01"/><rect x="513.6" y="683.93" width="2" height="2" rx="0" fill="#E6E6EA" opacity="0.01"/><rect x="293.09" y="1383.81" width="2" height="2" rx="0" fill="#E6E6EA" opacity="0"/><rect x="794.11" y="296.57" width="2" height="2" rx="0" fill="#E6E6EA" opacity="0.05"/><rect x="613.84" y="417.15" width="2" height="2" rx="0" fill="#E6E6EA" opacity="0.05"/><rect x="471.65" y="1260.53" width="2" height="2" rx="0" fill="#E6E6EA" opacity="0.04"/><rect x="1147.94" y="1247.96" width="2" height="2" rx="0" fill="#E6E6EA" opacity="0"/><rect x="1176.9" y="774.14" width="2" height="2" rx="0" fill="#E6E6EA" opacity="0.05"/><rect x="793.96" y="103" width="2" height="2" rx="0" fill="#E6E6EA" opacity="0"/><rect x="501.25" y="584.19" width="2" height="2" rx="0" fill="#E6E6EA" opacity="0.03"/><rect x="996.95" y="87.27" width="2" height="2" rx="0" fill="#E6E6EA" opacity="0.04"/><rect x="670.62" y="975.04" width="2" height="2" rx="0" fill="#E6E6EA" opacity="0"/><rect x="657.57" y="1287.24" width="2" height="2" rx="0" fill="#E6E6EA" opacity="0.01"/><rect x="270.89" y="114.86" width="2" height="2" rx="0" fill="#E6E6EA" opacity="0.05"/><rect x="289.94" y="1369.36" width="2" height="2" rx="0" fill="#E6E6EA" opacity="0.01"/><rect x="40.47" y="1265.06" width="2" height="2" rx="0" fill="#E6E6EA" opacity="0.03"/><rect x="320.41" y="959.95" width="2" height="2" rx="0" fill="#E6E6EA" opacity="0.05"/><rect x="1054.7" y="19.88" width="2" height="2" rx="0" fill="#E6E6EA" opacity="0.04"/><rect x="1010.86" y="1424.17" width="2" height="2" rx="0" fill="#E6E6EA" opacity="0.02"/><rect x="1009.79" y="1355.88" width="2" height="2" rx="0" fill="#E6E6EA" opacity="0.01"/><rect x="1003.23" y="15.84" width="2" height="2" rx="0" fill="#E6E6EA" opacity="0.02"/><rect x="494.2" y="1102.02" width="2" height="2" rx="0" fill="#E6E6EA" opacity="0.04"/><rect x="974.17" y="136.69" width="2" height="2" rx="0" fill="#E6E6EA" opacity="0.03"/><rect x="1184.28" y="1267.92" width="2" height="2" rx="0" fill="#E6E6EA" opacity="0.03"/><rect x="645.32" y="372.17" width="2" height="2" rx="0" fill="#E6E6EA" opacity="0"/><rect x="514.95" y="374.8" width="2" height="2" rx="0" fill="#E6E6EA" opacity="0.02"/><rect x="155.44" y="129.05" width="2" height="2" rx="0" fill="#E6E6EA" opacity="0.05"/><rect x="66.63" y="244.82" width="2" height="2" rx="0" fill="#E6E6EA" opacity="0.01"/><rect x="444.07" y="811.96" width="2" height="2" rx="0" fill="#E6E6EA" opacity="0.04"/><rect x="64.12" y="182.94" width="2" height="2" rx="0" fill="#E6E6EA" opacity="0.04"/><rect x="577.95" y="943.26" width="2" height="2" rx="0" fill="#E6E6EA" opacity="0.05"/><rect x="98.16" y="1134.54" width="2" height="2" rx="0" fill="#E6E6EA" opacity="0"/><rect x="1135.54" y="323.51" width="2" height="2" rx="0" fill="#E6E6EA" opacity="0.04"/><rect x="645.38" y="31.98" width="2" height="2" rx="0" fill="#E6E6EA" opacity="0.01"/><rect x="548.31" y="884.47" width="2" height="2" rx="0" fill="#E6E6EA" opacity="0.01"/><rect x="242.82" y="1288.34" width="2" height="2" rx="0" fill="#E6E6EA" opacity="0.02"/><rect x="172.72" y="221.81" width="2" height="2" rx="0" fill="#E6E6EA" opacity="0.01"/><rect x="132.64" y="1144.02" width="2" height="2" rx="0" fill="#E6E6EA" opacity="0.02"/><rect x="954.81" y="1278.84" width="2" height="2" rx="0" fill="#E6E6EA" opacity="0"/><rect x="28.72" y="267.09" width="2" height="2" rx="0" fill="#E6E6EA" opacity="0.03"/><rect x="730.37" y="699.71" width="2" height="2" rx="0" fill="#E6E6EA" opacity="0"/><rect x="503.74" y="410.43" width="2" height="2" rx="0" fill="#E6E6EA" opacity="0.04"/><rect x="251.03" y="1417.8" width="2" height="2" rx="0" fill="#E6E6EA" opacity="0.05"/><rect x="698.05" y="1104.15" width="2" height="2" rx="0" fill="#E6E6EA" opacity="0.03"/><rect x="295.03" y="173.28" width="2" height="2" rx="0" fill="#E6E6EA" opacity="0.03"/><rect x="53.17" y="1012.78" width="2" height="2" rx="0" fill="#E6E6EA" opacity="0.04"/><rect x="778.85" y="594.98" width="2" height="2" rx="0" fill="#E6E6EA" opacity="0.03"/><rect x="1021.44" y="130.29" width="2" height="2" rx="0" fill="#E6E6EA" opacity="0.04"/><rect x="961.83" y="269.8" width="2" height="2" rx="0" fill="#E6E6EA" opacity="0.05"/><rect x="299.29" y="1271.46" width="2" height="2" rx="0" fill="#E6E6EA" opacity="0.02"/><rect x="325.63" y="1175.02" width="2" height="2" rx="0" fill="#E6E6EA" opacity="0.03"/><rect x="756.58" y="793.24" width="2" height="2" rx="0" fill="#E6E6EA" opacity="0"/><rect x="79.87" y="1033.39" width="2" height="2" rx="0" fill="#E6E6EA" opacity="0.04"/><rect x="838.32" y="476.67" width="2" height="2" rx="0" fill="#E6E6EA" opacity="0.05"/><rect x="130.63" y="801.91" width="2" height="2" rx="0" fill="#E6E6EA" opacity="0.01"/><rect x="90.76" y="214.86" width="2" height="2" rx="0" fill="#E6E6EA" opacity="0.02"/><rect x="264.33" y="190.11" width="2" height="2" rx="0" fill="#E6E6EA" opacity="0.01"/><rect x="150.04" y="714.49" width="2" height="2" rx="0" fill="#E6E6EA" opacity="0.03"/><rect x="771.81" y="1159.38" width="2" height="2" rx="0" fill="#E6E6EA" opacity="0.02"/><rect x="382.24" y="877.32" width="2" height="2" rx="0" fill="#E6E6EA" opacity="0"/><rect x="1008.79" y="1.67" width="2" height="2" rx="0" fill="#E6E6EA" opacity="0.03"/><rect x="9.65" y="246.46" width="2" height="2" rx="0" fill="#E6E6EA" opacity="0.03"/><rect x="1199.39" y="594.25" width="2" height="2" rx="0" fill="#E6E6EA" opacity="0.02"/><rect x="720.84" y="33.93" width="2" height="2" rx="0" fill="#E6E6EA" opacity="0.01"/><rect x="752.47" y="27.98" width="2" height="2" rx="0" fill="#E6E6EA" opacity="0.03"/><rect x="1162.2" y="969.7" width="2" height="2" rx="0" fill="#E6E6EA" opacity="0.01"/><rect x="389.94" y="581.06" width="2" height="2" rx="0" fill="#E6E6EA" opacity="0.03"/><rect x="647.51" y="1378.74" width="2" height="2" rx="0" fill="#E6E6EA" opacity="0.02"/><rect x="100.4" y="332.87" width="2" height="2" rx="0" fill="#E6E6EA" opacity="0.04"/><rect x="463.59" y="1459.75" width="2" height="2" rx="0" fill="#E6E6EA" opacity="0"/><rect x="1049.19" y="1105.13" width="2" height="2" rx="0" fill="#E6E6EA" opacity="0.03"/><rect x="490.75" y="572.86" width="2" height="2" rx="0" fill="#E6E6EA" opacity="0.03"/><rect x="999.71" y="1212.8" width="2" height="2" rx="0" fill="#E6E6EA" opacity="0.05"/><rect x="226.08" y="613.45" width="2" height="2" rx="0" fill="#E6E6EA" opacity="0.02"/><rect x="376.9" y="1124.13" width="2" height="2" rx="0" fill="#E6E6EA" opacity="0.02"/><rect x="1141.95" y="1426.59" width="2" height="2" rx="0" fill="#E6E6EA" opacity="0.03"/><rect x="181.08" y="356.51" width="2" height="2" rx="0" fill="#E6E6EA" opacity="0.03"/><rect x="265.86" y="861.19" width="2" height="2" rx="0" fill="#E6E6EA" opacity="0.02"/><rect x="1139.97" y="446.77" width="2" height="2" rx="0" fill="#E6E6EA" opacity="0.05"/><rect x="476.86" y="1258.79" width="2" height="2" rx="0" fill="#E6E6EA" opacity="0.01"/><rect x="226.91" y="1495.37" width="2" height="2" rx="0" fill="#E6E6EA" opacity="0.01"/><rect x="560.01" y="653.4" width="2" height="2" rx="0" fill="#E6E6EA" opacity="0"/><rect x="327.26" y="861.19" width="2" height="2" rx="0" fill="#E6E6EA" opacity="0.02"/><rect x="130.78" y="968.24" width="2" height="2" rx="0" fill="#E6E6EA" opacity="0.04"/><rect x="198.13" y="1445.36" width="2" height="2" rx="0" fill="#E6E6EA" opacity="0.04"/><rect x="956.66" y="1148.11" width="2" height="2" rx="0" fill="#E6E6EA" opacity="0.01"/><rect x="666.16" y="256.13" width="2" height="2" rx="0" fill="#E6E6EA" opacity="0.04"/><rect x="35.96" y="886.87" width="2" height="2" rx="0" fill="#E6E6EA" opacity="0"/><rect x="868.11" y="1008.79" width="2" height="2" rx="0" fill="#E6E6EA" opacity="0.01"/><rect x="188.35" y="1430.03" width="2" height="2" rx="0" fill="#E6E6EA" opacity="0"/><rect x="285.17" y="99.63" width="2" height="2" rx="0" fill="#E6E6EA" opacity="0.02"/><rect x="814.4" y="448.56" width="2" height="2" rx="0" fill="#E6E6EA" opacity="0.05"/><rect x="1093.46" y="1163.31" width="2" height="2" rx="0" fill="#E6E6EA" opacity="0.02"/><rect x="297.89" y="302.18" width="2" height="2" rx="0" fill="#E6E6EA" opacity="0.04"/><rect x="573.23" y="806.68" width="2" height="2" rx="0" fill="#E6E6EA" opacity="0.03"/><rect x="23.1" y="748.06" width="2" height="2" rx="0" fill="#E6E6EA" opacity="0.04"/><rect x="225.64" y="358.1" width="2" height="2" rx="0" fill="#E6E6EA" opacity="0.02"/><rect x="760.94" y="857.86" width="2" height="2" rx="0" fill="#E6E6EA" opacity="0"/><rect x="862.46" y="669.13" width="2" height="2" rx="0" fill="#E6E6EA" opacity="0.02"/><rect x="789.01" y="1058.16" width="2" height="2" rx="0" fill="#E6E6EA" opacity="0.02"/><rect x="657.57" y="1207.36" width="2" height="2" rx="0" fill="#E6E6EA" opacity="0"/><rect x="397.83" y="1443.64" width="2" height="2" rx="0" fill="#E6E6EA" opacity="0.02"/><rect x="269.23" y="1161.44" width="2" height="2" rx="0" fill="#E6E6EA" opacity="0.03"/><rect x="506.02" y="387.32" width="2" height="2" rx="0" fill="#E6E6EA" opacity="0.04"/><rect x="766.32" y="1381.18" width="2" height="2" rx="0" fill="#E6E6EA" opacity="0.03"/><rect x="86.99" y="605.16" width="2" height="2" rx="0" fill="#E6E6EA" opacity="0.03"/><rect x="547.47" y="1208.92" width="2" height="2" rx="0" fill="#E6E6EA" opacity="0.03"/><rect x="1019.32" y="623.42" width="2" height="2" rx="0" fill="#E6E6EA" opacity="0.01"/><rect x="258.81" y="1267.3" width="2" height="2" rx="0" fill="#E6E6EA" opacity="0.04"/><rect x="708.91" y="1224.21" width="2" height="2" rx="0" fill="#E6E6EA" opacity="0.04"/><rect x="251.78" y="536.81" width="2" height="2" rx="0" fill="#E6E6EA" opacity="0.04"/><rect x="1193.13" y="1273.9" width="2" height="2" rx="0" fill="#E6E6EA" opacity="0.03"/><rect x="1084.63" y="213.98" width="2" height="2" rx="0" fill="#E6E6EA" opacity="0.03"/><rect x="503.66" y="180.32" width="2" height="2" rx="0" fill="#E6E6EA" opacity="0.02"/><rect x="1049.8" y="573.01" width="2" height="2" rx="0" fill="#E6E6EA" opacity="0.02"/><rect x="565.95" y="803.67" width="2" height="2" rx="0" fill="#E6E6EA" opacity="0.04"/><rect x="1125.66" y="1124.98" width="2" height="2" rx="0" fill="#E6E6EA" opacity="0.05"/><rect x="67.77" y="235.95" width="2" height="2" rx="0" fill="#E6E6EA" opacity="0.04"/><rect x="888.69" y="1245.99" width="2" height="2" rx="0" fill="#E6E6EA" opacity="0.04"/><rect x="397.21" y="307.99" width="2" height="2" rx="0" fill="#E6E6EA" opacity="0.05"/><rect x="967.24" y="77.07" width="2" height="2" rx="0" fill="#E6E6EA" opacity="0.03"/><rect x="205.2" y="3.23" width="2" height="2" rx="0" fill="#E6E6EA" opacity="0.01"/><rect x="1134.7" y="714.42" width="2" height="2" rx="0" fill="#E6E6EA" opacity="0.04"/><rect x="799.95" y="1494.65" width="2" height="2" rx="0" fill="#E6E6EA" opacity="0"/><rect x="67.94" y="909.33" width="2" height="2" rx="0" fill="#E6E6EA" opacity="0.04"/><rect x="215.43" y="313.26" width="2" height="2" rx="0" fill="#E6E6EA" opacity="0.05"/><rect x="1168.99" y="1122.01" width="2" height="2" rx="0" fill="#E6E6EA" opacity="0.04"/><rect x="872.64" y="100.02" width="2" height="2" rx="0" fill="#E6E6EA" opacity="0.03"/><rect x="804.38" y="67.11" width="2" height="2" rx="0" fill="#E6E6EA" opacity="0.05"/>
</svg>