<svg xmlns="http://www.w3.org/2000/svg" viewBox="0 0 1440 900" width="1440" height="900" role="img">
<defs>
  <linearGradient id="g-bg" x1="0" y1="0" x2="0.6" y2="1">
    <stop offset="0%" stop-color="#101014"/><stop offset="100%" stop-color="#050507"/>
  </linearGradient>
  <radialGradient id="g-glow" cx="0.5" cy="0.28" r="0.75">
    <stop offset="0%" stop-color="#C6A87C" stop-opacity="0.16"/>
    <stop offset="100%" stop-color="#C6A87C" stop-opacity="0"/>
  </radialGradient>
  <linearGradient id="g-img" x1="0" y1="0" x2="1" y2="1">
    <stop offset="0%" stop-color="#35353E"/><stop offset="55%" stop-color="#232329"/><stop offset="100%" stop-color="#17171C"/>
  </linearGradient>
  <linearGradient id="g-brass" x1="0" y1="0" x2="1" y2="1">
    <stop offset="0%" stop-color="#C6A87C" stop-opacity="0.9"/><stop offset="100%" stop-color="#8C7554" stop-opacity="0.35"/>
  </linearGradient>
</defs>
<rect x="0" y="0" width="1440" height="900" rx="0" fill="#0A0A0D"/>
<rect x="0" y="0" width="1440" height="900" rx="0" fill="url(#g-bg)"/>
<rect x="0" y="0" width="1440" height="900" rx="0" fill="url(#g-glow)"/>
<rect x="0" y="0" width="236" height="900" rx="0" fill="#101014"/><line x1="236" y1="0" x2="236" y2="900" stroke="#232329" stroke-width="1"/><rect x="28" y="28" width="22" height="22" rx="6" fill="#B0A8C8"/><text x="60" y="44" font-family="Inter, system-ui, sans-serif" font-size="14" font-weight="700" fill="#E6E6EA" text-anchor="start">Smart Library</text><rect x="36" y="108" width="13" height="13" rx="3" fill="#35353E"/><text x="62" y="119" font-family="Inter, system-ui, sans-serif" font-size="12.5" font-weight="400" fill="#6B6B78" text-anchor="start">Overview</text><rect x="16" y="142" width="204" height="38" rx="8" fill="#232329"/><rect x="16" y="148" width="3" height="26" rx="2" fill="#B0A8C8"/><rect x="36" y="154" width="13" height="13" rx="3" fill="#B0A8C8"/><text x="62" y="165" font-family="Inter, system-ui, sans-serif" font-size="12.5" font-weight="500" fill="#E6E6EA" text-anchor="start">Fleet</text><rect x="36" y="200" width="13" height="13" rx="3" fill="#35353E"/><text x="62" y="211" font-family="Inter, system-ui, sans-serif" font-size="12.5" font-weight="400" fill="#6B6B78" text-anchor="start">Telemetry</text><rect x="36" y="246" width="13" height="13" rx="3" fill="#35353E"/><text x="62" y="257" font-family="Inter, system-ui, sans-serif" font-size="12.5" font-weight="400" fill="#6B6B78" text-anchor="start">Alerts</text><rect x="36" y="292" width="13" height="13" rx="3" fill="#35353E"/><text x="62" y="303" font-family="Inter, system-ui, sans-serif" font-size="12.5" font-weight="400" fill="#6B6B78" text-anchor="start">Reports</text><rect x="36" y="338" width="13" height="13" rx="3" fill="#35353E"/><text x="62" y="349" font-family="Inter, system-ui, sans-serif" font-size="12.5" font-weight="400" fill="#6B6B78" text-anchor="start">Billing</text><rect x="36" y="384" width="13" height="13" rx="3" fill="#35353E"/><text x="62" y="395" font-family="Inter, system-ui, sans-serif" font-size="12.5" font-weight="400" fill="#6B6B78" text-anchor="start">Settings</text><rect x="16" y="816" width="204" height="60" rx="10" fill="#17171C"/><circle cx="46" cy="846" r="15" fill="url(#g-img)"/><rect x="70" y="838" width="92" height="6" rx="3" fill="#35353E"/><rect x="70" y="852" width="66" height="5" rx="2.5" fill="#35353E" opacity="0.6"/><rect x="236" y="0" width="1204" height="68" rx="0" fill="#0A0A0D"/><line x1="236" y1="68" x2="1440" y2="68" stroke="#232329" stroke-width="1"/><text x="268" y="42" font-family="Inter, system-ui, sans-serif" font-size="19" font-weight="600" fill="#E6E6EA" text-anchor="start">Fleet</text><rect x="1060" y="20" width="180" height="30" rx="15" fill="#17171C"/><text x="1078" y="40" font-family="JetBrains Mono, ui-monospace, monospace" font-size="9" font-weight="500" fill="#6B6B78" text-anchor="start" letter-spacing="1.2">LAST 30 DAYS</text><rect x="1256" y="20" width="130" height="30" rx="15" fill="#B0A8C8"/><text x="1321" y="40" font-family="Inter, system-ui, sans-serif" font-size="12" font-weight="600" fill="#050507" text-anchor="middle">Export</text><rect x="268" y="100" width="1140" height="470" rx="10" fill="#17171C"/><rect x="268" y="100" width="1140" height="470" rx="10" fill="#232329" opacity="0.3"/><circle cx="646.78" cy="373.99" r="3.2" fill="#9FB4C9" opacity="0.5"/><circle cx="1292.88" cy="519.34" r="3.2" fill="#9FB4C9" opacity="0.5"/><circle cx="663.37" cy="384.13" r="3.2" fill="#9FB4C9" opacity="0.5"/><circle cx="1064.92" cy="334.97" r="3.2" fill="#9FB4C9" opacity="0.5"/><circle cx="413.03" cy="249.48" r="7" fill="#B0A8C8" opacity="0.95"/><circle cx="413.03" cy="249.48" r="16" fill="#B0A8C8" opacity="0.12"/><circle cx="390.51" cy="253.05" r="3.2" fill="#9FB4C9" opacity="0.5"/><circle cx="316.1" cy="307.11" r="3.2" fill="#9FB4C9" opacity="0.5"/><circle cx="1098.03" cy="299.21" r="3.2" fill="#9FB4C9" opacity="0.5"/><circle cx="375.03" cy="448.65" r="3.2" fill="#9FB4C9" opacity="0.5"/><circle cx="413.58" cy="518.15" r="3.2" fill="#9FB4C9" opacity="0.5"/><circle cx="468.47" cy="270.86" r="3.2" fill="#9FB4C9" opacity="0.5"/><circle cx="570.85" cy="427.73" r="3.2" fill="#9FB4C9" opacity="0.5"/><circle cx="360.41" cy="506.15" r="3.2" fill="#9FB4C9" opacity="0.5"/><circle cx="599.33" cy="204.89" r="3.2" fill="#9FB4C9" opacity="0.5"/><circle cx="980.59" cy="281.12" r="3.2" fill="#9FB4C9" opacity="0.5"/><circle cx="1091.66" cy="318.75" r="3.2" fill="#9FB4C9" opacity="0.5"/><circle cx="855.71" cy="255.92" r="3.2" fill="#9FB4C9" opacity="0.5"/><circle cx="402.74" cy="214.11" r="3.2" fill="#9FB4C9" opacity="0.5"/><circle cx="766.21" cy="229.58" r="3.2" fill="#9FB4C9" opacity="0.5"/><circle cx="352.52" cy="463.87" r="7" fill="#B0A8C8" opacity="0.95"/><circle cx="352.52" cy="463.87" r="16" fill="#B0A8C8" opacity="0.12"/><circle cx="469.64" cy="507.06" r="3.2" fill="#9FB4C9" opacity="0.5"/><circle cx="1135.26" cy="411.59" r="3.2" fill="#9FB4C9" opacity="0.5"/><circle cx="1074.48" cy="180.94" r="3.2" fill="#9FB4C9" opacity="0.5"/><circle cx="965.66" cy="369.28" r="7" fill="#B0A8C8" opacity="0.95"/><circle cx="965.66" cy="369.28" r="16" fill="#B0A8C8" opacity="0.12"/><circle cx="494.39" cy="248.87" r="7" fill="#B0A8C8" opacity="0.95"/><circle cx="494.39" cy="248.87" r="16" fill="#B0A8C8" opacity="0.12"/><circle cx="397.35" cy="423.9" r="3.2" fill="#9FB4C9" opacity="0.5"/><line x1="747.67" y1="266.27" x2="729.69" y2="265.7" stroke="#35353E" stroke-width="1" opacity="0.35"/><line x1="1324.66" y1="472.22" x2="1239.12" y2="516.78" stroke="#35353E" stroke-width="1" opacity="0.35"/><line x1="347.05" y1="208.95" x2="320.54" y2="164.9" stroke="#35353E" stroke-width="1" opacity="0.35"/><line x1="893.83" y1="394.08" x2="937.56" y2="359.25" stroke="#35353E" stroke-width="1" opacity="0.35"/><line x1="397.92" y1="453.56" x2="496.68" y2="497.15" stroke="#35353E" stroke-width="1" opacity="0.35"/><line x1="1234.6" y1="450.85" x2="1170.76" y2="446.29" stroke="#35353E" stroke-width="1" opacity="0.35"/><line x1="1337.53" y1="471.47" x2="1380.93" y2="422.2" stroke="#35353E" stroke-width="1" opacity="0.35"/><line x1="1238.14" y1="509.8" x2="1275.88" y2="546.24" stroke="#35353E" stroke-width="1" opacity="0.35"/><line x1="576.08" y1="347.44" x2="616.57" y2="269.53" stroke="#35353E" stroke-width="1" opacity="0.35"/><line x1="459.2" y1="301.38" x2="482.17" y2="373.61" stroke="#35353E" stroke-width="1" opacity="0.35"/><line x1="1017.69" y1="391.45" x2="935.97" y2="383.11" stroke="#35353E" stroke-width="1" opacity="0.35"/><line x1="1343.04" y1="205.3" x2="1254.12" y2="140.81" stroke="#35353E" stroke-width="1" opacity="0.35"/><line x1="1073.41" y1="182.68" x2="1004.14" y2="222.44" stroke="#35353E" stroke-width="1" opacity="0.35"/><line x1="1247.5" y1="314.69" x2="1159.45" y2="300.89" stroke="#35353E" stroke-width="1" opacity="0.35"/><rect x="268" y="598" width="364" height="270" rx="10" fill="#17171C"/><rect x="268" y="598" width="364" height="270" rx="10" fill="#232329" opacity="0.3"/><text x="292" y="632" font-family="JetBrains Mono, ui-monospace, monospace" font-size="8.5" font-weight="500" fill="#6B6B78" text-anchor="start" letter-spacing="1.2">LOAD</text><text x="292" y="686" font-family="Inter, system-ui, sans-serif" font-size="34" font-weight="700" fill="#E6E6EA" text-anchor="start">74%</text><rect x="292" y="728.81" width="21.33" height="101.19" rx="2" fill="#35353E" opacity="0.6"/><rect x="318.33" y="749.6" width="21.33" height="80.4" rx="2" fill="#35353E" opacity="0.6"/><rect x="344.67" y="725.66" width="21.33" height="104.34" rx="2" fill="#35353E" opacity="0.6"/><rect x="371" y="756.68" width="21.33" height="73.32" rx="2" fill="#35353E" opacity="0.6"/><rect x="397.33" y="780.66" width="21.33" height="49.34" rx="2" fill="#35353E" opacity="0.6"/><rect x="423.67" y="757.51" width="21.33" height="72.49" rx="2" fill="#35353E" opacity="0.6"/><rect x="450" y="763.03" width="21.33" height="66.97" rx="2" fill="#35353E" opacity="0.6"/><rect x="476.33" y="756.02" width="21.33" height="73.98" rx="2" fill="#35353E" opacity="0.6"/><rect x="502.67" y="738.77" width="21.33" height="91.23" rx="2" fill="#35353E" opacity="0.6"/><rect x="529" y="783.07" width="21.33" height="46.93" rx="2" fill="#35353E" opacity="0.6"/><rect x="555.33" y="726.28" width="21.33" height="103.72" rx="2" fill="#35353E" opacity="0.6"/><rect x="581.67" y="781.19" width="21.33" height="48.81" rx="2" fill="#35353E" opacity="0.6"/><rect x="656" y="598" width="364" height="270" rx="10" fill="#17171C"/><rect x="656" y="598" width="364" height="270" rx="10" fill="#232329" opacity="0.3"/><text x="680" y="632" font-family="JetBrains Mono, ui-monospace, monospace" font-size="8.5" font-weight="500" fill="#6B6B78" text-anchor="start" letter-spacing="1.2">DISTANCE</text><text x="680" y="686" font-family="Inter, system-ui, sans-serif" font-size="34" font-weight="700" fill="#B0A8C8" text-anchor="start">18.2k</text><rect x="680" y="794.54" width="21.33" height="35.46" rx="2" fill="#35353E" opacity="0.6"/><rect x="706.33" y="765.96" width="21.33" height="64.04" rx="2" fill="#35353E" opacity="0.6"/><rect x="732.67" y="754.79" width="21.33" height="75.21" rx="2" fill="#35353E" opacity="0.6"/><rect x="759" y="732.56" width="21.33" height="97.44" rx="2" fill="#35353E" opacity="0.6"/><rect x="785.33" y="733.31" width="21.33" height="96.69" rx="2" fill="#35353E" opacity="0.6"/><rect x="811.67" y="753.08" width="21.33" height="76.92" rx="2" fill="#35353E" opacity="0.6"/><rect x="838" y="732.1" width="21.33" height="97.9" rx="2" fill="#35353E" opacity="0.6"/><rect x="864.33" y="745.51" width="21.33" height="84.49" rx="2" fill="#35353E" opacity="0.6"/><rect x="890.67" y="749.86" width="21.33" height="80.14" rx="2" fill="#35353E" opacity="0.6"/><rect x="917" y="772.5" width="21.33" height="57.5" rx="2" fill="#35353E" opacity="0.6"/><rect x="943.33" y="748.36" width="21.33" height="81.64" rx="2" fill="#35353E" opacity="0.6"/><rect x="969.67" y="744.73" width="21.33" height="85.27" rx="2" fill="#35353E" opacity="0.6"/><rect x="1044" y="598" width="364" height="270" rx="10" fill="#17171C"/><rect x="1044" y="598" width="364" height="270" rx="10" fill="#232329" opacity="0.3"/><text x="1068" y="632" font-family="JetBrains Mono, ui-monospace, monospace" font-size="8.5" font-weight="500" fill="#6B6B78" text-anchor="start" letter-spacing="1.2">FUEL</text><text x="1068" y="686" font-family="Inter, system-ui, sans-serif" font-size="34" font-weight="700" fill="#E6E6EA" text-anchor="start">92%</text><rect x="1068" y="771.45" width="21.33" height="58.55" rx="2" fill="#35353E" opacity="0.6"/><rect x="1094.33" y="747.02" width="21.33" height="82.98" rx="2" fill="#35353E" opacity="0.6"/><rect x="1120.67" y="764.47" width="21.33" height="65.53" rx="2" fill="#35353E" opacity="0.6"/><rect x="1147" y="792.99" width="21.33" height="37.01" rx="2" fill="#35353E" opacity="0.6"/><rect x="1173.33" y="804.61" width="21.33" height="25.39" rx="2" fill="#35353E" opacity="0.6"/><rect x="1199.67" y="775.39" width="21.33" height="54.61" rx="2" fill="#35353E" opacity="0.6"/><rect x="1226" y="778.26" width="21.33" height="51.74" rx="2" fill="#35353E" opacity="0.6"/><rect x="1252.33" y="794.47" width="21.33" height="35.53" rx="2" fill="#35353E" opacity="0.6"/><rect x="1278.67" y="727.29" width="21.33" height="102.71" rx="2" fill="#35353E" opacity="0.6"/><rect x="1305" y="744.55" width="21.33" height="85.45" rx="2" fill="#35353E" opacity="0.6"/><rect x="1331.33" y="808.53" width="21.33" height="21.47" rx="2" fill="#35353E" opacity="0.6"/><rect x="1357.67" y="792.85" width="21.33" height="37.15" rx="2" fill="#35353E" opacity="0.6"/>
</svg>