<svg xmlns="http://www.w3.org/2000/svg" viewBox="0 0 1440 900" width="1440" height="900" role="img">
<defs>
  <linearGradient id="g-bg" x1="0" y1="0" x2="0.6" y2="1">
    <stop offset="0%" stop-color="#101014"/><stop offset="100%" stop-color="#050507"/>
  </linearGradient>
  <radialGradient id="g-glow" cx="0.5" cy="0.28" r="0.75">
    <stop offset="0%" stop-color="#C6A87C" stop-opacity="0.16"/>
    <stop offset="100%" stop-color="#C6A87C" stop-opacity="0"/>
  </radialGradient>
  <linearGradient id="g-img" x1="0" y1="0" x2="1" y2="1">
    <stop offset="0%" stop-color="#35353E"/><stop offset="55%" stop-color="#232329"/><stop offset="100%" stop-color="#17171C"/>
  </linearGradient>
  <linearGradient id="g-brass" x1="0" y1="0" x2="1" y2="1">
    <stop offset="0%" stop-color="#C6A87C" stop-opacity="0.9"/><stop offset="100%" stop-color="#8C7554" stop-opacity="0.35"/>
  </linearGradient>
</defs>
<rect x="0" y="0" width="1440" height="900" rx="0" fill="#0A0A0D"/>
<rect x="0" y="0" width="1440" height="900" rx="0" fill="url(#g-bg)"/>
<rect x="0" y="0" width="1440" height="900" rx="0" fill="url(#g-glow)"/>
<rect x="0" y="0" width="236" height="900" rx="0" fill="#101014"/><line x1="236" y1="0" x2="236" y2="900" stroke="#232329" stroke-width="1"/><rect x="28" y="28" width="22" height="22" rx="6" fill="#B0A8C8"/><text x="60" y="44" font-family="Inter, system-ui, sans-serif" font-size="14" font-weight="700" fill="#E6E6EA" text-anchor="start">Smart Library</text><rect x="36" y="108" width="13" height="13" rx="3" fill="#35353E"/><text x="62" y="119" font-family="Inter, system-ui, sans-serif" font-size="12.5" font-weight="400" fill="#6B6B78" text-anchor="start">Overview</text><rect x="36" y="154" width="13" height="13" rx="3" fill="#35353E"/><text x="62" y="165" font-family="Inter, system-ui, sans-serif" font-size="12.5" font-weight="400" fill="#6B6B78" text-anchor="start">Fleet</text><rect x="36" y="200" width="13" height="13" rx="3" fill="#35353E"/><text x="62" y="211" font-family="Inter, system-ui, sans-serif" font-size="12.5" font-weight="400" fill="#6B6B78" text-anchor="start">Telemetry</text><rect x="16" y="234" width="204" height="38" rx="8" fill="#232329"/><rect x="16" y="240" width="3" height="26" rx="2" fill="#B0A8C8"/><rect x="36" y="246" width="13" height="13" rx="3" fill="#B0A8C8"/><text x="62" y="257" font-family="Inter, system-ui, sans-serif" font-size="12.5" font-weight="500" fill="#E6E6EA" text-anchor="start">Alerts</text><rect x="36" y="292" width="13" height="13" rx="3" fill="#35353E"/><text x="62" y="303" font-family="Inter, system-ui, sans-serif" font-size="12.5" font-weight="400" fill="#6B6B78" text-anchor="start">Reports</text><rect x="36" y="338" width="13" height="13" rx="3" fill="#35353E"/><text x="62" y="349" font-family="Inter, system-ui, sans-serif" font-size="12.5" font-weight="400" fill="#6B6B78" text-anchor="start">Billing</text><rect x="36" y="384" width="13" height="13" rx="3" fill="#35353E"/><text x="62" y="395" font-family="Inter, system-ui, sans-serif" font-size="12.5" font-weight="400" fill="#6B6B78" text-anchor="start">Settings</text><rect x="16" y="816" width="204" height="60" rx="10" fill="#17171C"/><circle cx="46" cy="846" r="15" fill="url(#g-img)"/><rect x="70" y="838" width="92" height="6" rx="3" fill="#35353E"/><rect x="70" y="852" width="66" height="5" rx="2.5" fill="#35353E" opacity="0.6"/><rect x="236" y="0" width="1204" height="68" rx="0" fill="#0A0A0D"/><line x1="236" y1="68" x2="1440" y2="68" stroke="#232329" stroke-width="1"/><text x="268" y="42" font-family="Inter, system-ui, sans-serif" font-size="19" font-weight="600" fill="#E6E6EA" text-anchor="start">Alerts</text><rect x="1060" y="20" width="180" height="30" rx="15" fill="#17171C"/><text x="1078" y="40" font-family="JetBrains Mono, ui-monospace, monospace" font-size="9" font-weight="500" fill="#6B6B78" text-anchor="start" letter-spacing="1.2">LAST 30 DAYS</text><rect x="1256" y="20" width="130" height="30" rx="15" fill="#B0A8C8"/><text x="1321" y="40" font-family="Inter, system-ui, sans-serif" font-size="12" font-weight="600" fill="#050507" text-anchor="middle">Export</text><rect x="268" y="100" width="1140" height="768" rx="10" fill="#17171C"/><rect x="268" y="100" width="1140" height="768" rx="10" fill="#232329" opacity="0.3"/><text x="300" y="146" font-family="JetBrains Mono, ui-monospace, monospace" font-size="9" font-weight="500" fill="#B0A8C8" text-anchor="start" letter-spacing="1.2">UNIT-1842 / EU-WEST</text><text x="300" y="196" font-family="Inter, system-ui, sans-serif" font-size="30" font-weight="600" fill="#E6E6EA" text-anchor="start">Fleet unit detail</text><rect x="300" y="230" width="1076" height="300" rx="8" fill="#0A0A0D"/><line x1="324" y1="270" x2="1352" y2="270" stroke="#35353E" stroke-width="1" opacity="0.28"/><line x1="324" y1="314" x2="1352" y2="314" stroke="#35353E" stroke-width="1" opacity="0.28"/><line x1="324" y1="358" x2="1352" y2="358" stroke="#35353E" stroke-width="1" opacity="0.28"/><line x1="324" y1="402" x2="1352" y2="402" stroke="#35353E" stroke-width="1" opacity="0.28"/><line x1="324" y1="446" x2="1352" y2="446" stroke="#35353E" stroke-width="1" opacity="0.28"/><line x1="324" y1="490" x2="1352" y2="490" stroke="#35353E" stroke-width="1" opacity="0.28"/><path d="M324 448.85 L359.45 461.72 L394.9 446.77 L430.34 408.62 L465.79 458.6 L501.24 480.22 L536.69 418.35 L572.14 475.45 L607.59 433.15 L643.03 424.73 L678.48 430.65 L713.93 480.63 L749.38 454.6 L784.83 435.71 L820.28 441.52 L855.72 388.67 L891.17 457.79 L926.62 451.3 L962.07 403.33 L997.52 455.73 L1032.97 474.72 L1068.41 415.64 L1103.86 401.21 L1139.31 430.52 L1174.76 397.13 L1210.21 472.25 L1245.66 475.54 L1281.1 387.82 L1316.55 449.65 L1352 449.72 " fill="none" stroke="#9FB4C9" stroke-width="1.6" opacity="0.55"/><path d="M324 312.05 L359.45 443.4 L394.9 403.56 L430.34 366.73 L465.79 454.59 L501.24 303.43 L536.69 468.71 L572.14 343.32 L607.59 370.8 L643.03 403.74 L678.48 303.84 L713.93 329.82 L749.38 396.54 L784.83 478.42 L820.28 408.21 L855.72 429.94 L891.17 446.6 L926.62 378.59 L962.07 342.82 L997.52 394.57 L1032.97 341.92 L1068.41 411.93 L1103.86 402.3 L1139.31 344.54 L1174.76 415.37 L1210.21 467.51 L1245.66 317.92 L1281.1 422.24 L1316.55 330.49 L1352 466.04 " fill="none" stroke="#B0A8C8" stroke-width="2.4"/><rect x="300" y="562" width="254" height="106" rx="8" fill="#0A0A0D"/><text x="320" y="594" font-family="JetBrains Mono, ui-monospace, monospace" font-size="8.5" font-weight="500" fill="#6B6B78" text-anchor="start" letter-spacing="1.2">TEMP</text><text x="320" y="638" font-family="Inter, system-ui, sans-serif" font-size="26" font-weight="600" fill="#E6E6EA" text-anchor="start">41°C</text><rect x="574" y="562" width="254" height="106" rx="8" fill="#0A0A0D"/><text x="594" y="594" font-family="JetBrains Mono, ui-monospace, monospace" font-size="8.5" font-weight="500" fill="#6B6B78" text-anchor="start" letter-spacing="1.2">LOAD</text><text x="594" y="638" font-family="Inter, system-ui, sans-serif" font-size="26" font-weight="600" fill="#E6E6EA" text-anchor="start">68%</text><rect x="848" y="562" width="254" height="106" rx="8" fill="#0A0A0D"/><text x="868" y="594" font-family="JetBrains Mono, ui-monospace, monospace" font-size="8.5" font-weight="500" fill="#6B6B78" text-anchor="start" letter-spacing="1.2">SIGNAL</text><text x="868" y="638" font-family="Inter, system-ui, sans-serif" font-size="26" font-weight="600" fill="#E6E6EA" text-anchor="start">-72dB</text><rect x="1122" y="562" width="254" height="106" rx="8" fill="#0A0A0D"/><text x="1142" y="594" font-family="JetBrains Mono, ui-monospace, monospace" font-size="8.5" font-weight="500" fill="#6B6B78" text-anchor="start" letter-spacing="1.2">BATTERY</text><text x="1142" y="638" font-family="Inter, system-ui, sans-serif" font-size="26" font-weight="600" fill="#A8C0A0" text-anchor="start">88%</text><rect x="300" y="696" width="1076" height="140" rx="8" fill="#0A0A0D"/><rect x="324" y="724" width="6" height="6" rx="3" fill="#C8A0A0"/><rect x="344" y="721" width="494.65" height="6" rx="3" fill="#35353E" opacity="0.7"/><text x="1352" y="728" font-family="JetBrains Mono, ui-monospace, monospace" font-size="9" font-weight="500" fill="#6B6B78" text-anchor="end" letter-spacing="1.2">09:44</text><rect x="324" y="762" width="6" height="6" rx="3" fill="#B0A8C8"/><rect x="344" y="759" width="303.31" height="6" rx="3" fill="#35353E" opacity="0.7"/><text x="1352" y="766" font-family="JetBrains Mono, ui-monospace, monospace" font-size="9" font-weight="500" fill="#6B6B78" text-anchor="end" letter-spacing="1.2">10:3</text><rect x="324" y="800" width="6" height="6" rx="3" fill="#6B6B78"/><rect x="344" y="797" width="417.2" height="6" rx="3" fill="#35353E" opacity="0.7"/><text x="1352" y="804" font-family="JetBrains Mono, ui-monospace, monospace" font-size="9" font-weight="500" fill="#6B6B78" text-anchor="end" letter-spacing="1.2">11:33</text>
</svg>