<svg xmlns="http://www.w3.org/2000/svg" viewBox="0 0 390 844" width="390" height="844" role="img">
<defs>
  <linearGradient id="g-bg" x1="0" y1="0" x2="0.6" y2="1">
    <stop offset="0%" stop-color="#101014"/><stop offset="100%" stop-color="#050507"/>
  </linearGradient>
  <radialGradient id="g-glow" cx="0.5" cy="0.28" r="0.75">
    <stop offset="0%" stop-color="#C6A87C" stop-opacity="0.16"/>
    <stop offset="100%" stop-color="#C6A87C" stop-opacity="0"/>
  </radialGradient>
  <linearGradient id="g-img" x1="0" y1="0" x2="1" y2="1">
    <stop offset="0%" stop-color="#35353E"/><stop offset="55%" stop-color="#232329"/><stop offset="100%" stop-color="#17171C"/>
  </linearGradient>
  <linearGradient id="g-brass" x1="0" y1="0" x2="1" y2="1">
    <stop offset="0%" stop-color="#C6A87C" stop-opacity="0.9"/><stop offset="100%" stop-color="#8C7554" stop-opacity="0.35"/>
  </linearGradient>
</defs>
<rect x="0" y="0" width="390" height="844" rx="0" fill="#0A0A0D"/>
<rect x="0" y="0" width="390" height="844" rx="0" fill="url(#g-bg)"/>
<rect x="0" y="0" width="390" height="844" rx="0" fill="url(#g-glow)"/>
<text x="20" y="30" font-family="JetBrains Mono, ui-monospace, monospace" font-size="11" font-weight="600" fill="#E6E6EA" text-anchor="start" letter-spacing="1.2">9:41</text><rect x="330" y="22" width="16" height="9" rx="2" fill="#9C9CA8" opacity="0.7"/><rect x="310" y="22" width="12" height="9" rx="2" fill="#9C9CA8" opacity="0.5"/><rect x="292" y="22" width="12" height="9" rx="2" fill="#9C9CA8" opacity="0.5"/><text x="20" y="84" font-family="Inter, system-ui, sans-serif" font-size="27" font-weight="700" fill="#E6E6EA" text-anchor="start">Vetician</text><text x="20" y="104" font-family="JetBrains Mono, ui-monospace, monospace" font-size="9" font-weight="500" fill="#A8C0A0" text-anchor="start" letter-spacing="1.2">BOOKING</text><circle cx="358" cy="76" r="16" fill="#17171C"/><circle cx="358" cy="76" r="15.4" fill="#232329" opacity="0.8"/><circle cx="358" cy="76" r="6" fill="#A8C0A0" opacity="0.85"/><rect x="20" y="126" width="350" height="220" rx="18" fill="#17171C"/><rect x="20" y="126" width="350" height="220" rx="18" fill="#232329" opacity="0.3"/><line x1="40" y1="170" x2="350" y2="170" stroke="#35353E" stroke-width="1" opacity="0.35"/><line x1="40" y1="214" x2="350" y2="214" stroke="#35353E" stroke-width="1" opacity="0.35"/><line x1="40" y1="258" x2="350" y2="258" stroke="#35353E" stroke-width="1" opacity="0.35"/><line x1="40" y1="302" x2="350" y2="302" stroke="#35353E" stroke-width="1" opacity="0.35"/><path d="M44 229.75 L81.5 214.59 L119 269.45 L156.5 203.4 L194 260.33 L231.5 197.05 L269 199.32 L306.5 265.73 L344 253.46 " fill="none" stroke="#A8C0A0" stroke-width="2.5" stroke-linecap="round" stroke-linejoin="round"/><path d="M44 229.75 L81.5 214.59 L119 269.45 L156.5 203.4 L194 260.33 L231.5 197.05 L269 199.32 L306.5 265.73 L344 253.46 L344 330 L44 330 Z" fill="#A8C0A0" opacity="0.1"/><text x="40" y="158" font-family="Inter, system-ui, sans-serif" font-size="13" font-weight="600" fill="#9C9CA8" text-anchor="start">Performance</text><rect x="20" y="366" width="350" height="60" rx="14" fill="#17171C"/><rect x="34" y="386" width="20" height="20" rx="6" fill="#A8C0A0" opacity="0.2"/><rect x="66" y="388" width="181.62" height="6" rx="3" fill="#9C9CA8" opacity="0.8"/><rect x="66" y="404" width="80" height="5" rx="2.5" fill="#35353E"/><text x="350" y="402" font-family="Inter, system-ui, sans-serif" font-size="14" font-weight="600" fill="#E6E6EA" text-anchor="end">7.4k</text><rect x="20" y="438" width="350" height="60" rx="14" fill="#17171C"/><rect x="34" y="458" width="20" height="20" rx="6" fill="#A8C0A0" opacity="0.2"/><rect x="66" y="460" width="139.57" height="6" rx="3" fill="#9C9CA8" opacity="0.8"/><rect x="66" y="476" width="80" height="5" rx="2.5" fill="#35353E"/><text x="350" y="474" font-family="Inter, system-ui, sans-serif" font-size="14" font-weight="600" fill="#E6E6EA" text-anchor="end">1.9k</text><rect x="20" y="510" width="350" height="60" rx="14" fill="#17171C"/><rect x="34" y="530" width="20" height="20" rx="6" fill="#A8C0A0" opacity="0.2"/><rect x="66" y="532" width="143.5" height="6" rx="3" fill="#9C9CA8" opacity="0.8"/><rect x="66" y="548" width="80" height="5" rx="2.5" fill="#35353E"/><text x="350" y="546" font-family="Inter, system-ui, sans-serif" font-size="14" font-weight="600" fill="#E6E6EA" text-anchor="end">2.1k</text><rect x="20" y="582" width="350" height="60" rx="14" fill="#17171C"/><rect x="34" y="602" width="20" height="20" rx="6" fill="#A8C0A0" opacity="0.2"/><rect x="66" y="604" width="140.44" height="6" rx="3" fill="#9C9CA8" opacity="0.8"/><rect x="66" y="620" width="80" height="5" rx="2.5" fill="#35353E"/><text x="350" y="618" font-family="Inter, system-ui, sans-serif" font-size="14" font-weight="600" fill="#E6E6EA" text-anchor="end">7.3k</text><rect x="0" y="762" width="390" height="82" rx="0" fill="#050507" opacity="0.94"/><line x1="0" y1="762" x2="390" y2="762" stroke="#232329" stroke-width="1"/><rect x="50" y="790" width="20" height="20" rx="6" fill="#A8C0A0" opacity="0.95"/><rect x="46" y="818" width="28" height="4" rx="2" fill="#A8C0A0" opacity="0.6"/><rect x="140" y="790" width="20" height="20" rx="6" fill="#35353E" opacity="0.7"/><rect x="136" y="818" width="28" height="4" rx="2" fill="#35353E" opacity="0.4"/><rect x="230" y="790" width="20" height="20" rx="6" fill="#35353E" opacity="0.7"/><rect x="226" y="818" width="28" height="4" rx="2" fill="#35353E" opacity="0.4"/><rect x="320" y="790" width="20" height="20" rx="6" fill="#35353E" opacity="0.7"/><rect x="316" y="818" width="28" height="4" rx="2" fill="#35353E" opacity="0.4"/><rect x="135" y="832" width="120" height="4" rx="2" fill="#9C9CA8" opacity="0.5"/>
</svg>