<svg xmlns="http://www.w3.org/2000/svg" viewBox="0 0 1440 900" width="1440" height="900" role="img">
<defs>
  <linearGradient id="g-bg" x1="0" y1="0" x2="0.6" y2="1">
    <stop offset="0%" stop-color="#101014"/><stop offset="100%" stop-color="#050507"/>
  </linearGradient>
  <radialGradient id="g-glow" cx="0.5" cy="0.28" r="0.75">
    <stop offset="0%" stop-color="#C6A87C" stop-opacity="0.16"/>
    <stop offset="100%" stop-color="#C6A87C" stop-opacity="0"/>
  </radialGradient>
  <linearGradient id="g-img" x1="0" y1="0" x2="1" y2="1">
    <stop offset="0%" stop-color="#35353E"/><stop offset="55%" stop-color="#232329"/><stop offset="100%" stop-color="#17171C"/>
  </linearGradient>
  <linearGradient id="g-brass" x1="0" y1="0" x2="1" y2="1">
    <stop offset="0%" stop-color="#C6A87C" stop-opacity="0.9"/><stop offset="100%" stop-color="#8C7554" stop-opacity="0.35"/>
  </linearGradient>
</defs>
<rect x="0" y="0" width="1440" height="900" rx="0" fill="#0A0A0D"/>
<rect x="0" y="0" width="1440" height="900" rx="0" fill="url(#g-bg)"/>
<rect x="0" y="0" width="1440" height="900" rx="0" fill="url(#g-glow)"/>
<rect x="0" y="0" width="236" height="900" rx="0" fill="#101014"/><line x1="236" y1="0" x2="236" y2="900" stroke="#232329" stroke-width="1"/><rect x="28" y="28" width="22" height="22" rx="6" fill="#C6A87C"/><text x="60" y="44" font-family="Inter, system-ui, sans-serif" font-size="14" font-weight="700" fill="#E6E6EA" text-anchor="start">Signalyard</text><rect x="36" y="108" width="13" height="13" rx="3" fill="#35353E"/><text x="62" y="119" font-family="Inter, system-ui, sans-serif" font-size="12.5" font-weight="400" fill="#6B6B78" text-anchor="start">Overview</text><rect x="16" y="142" width="204" height="38" rx="8" fill="#232329"/><rect x="16" y="148" width="3" height="26" rx="2" fill="#C6A87C"/><rect x="36" y="154" width="13" height="13" rx="3" fill="#C6A87C"/><text x="62" y="165" font-family="Inter, system-ui, sans-serif" font-size="12.5" font-weight="500" fill="#E6E6EA" text-anchor="start">Fleet</text><rect x="36" y="200" width="13" height="13" rx="3" fill="#35353E"/><text x="62" y="211" font-family="Inter, system-ui, sans-serif" font-size="12.5" font-weight="400" fill="#6B6B78" text-anchor="start">Telemetry</text><rect x="36" y="246" width="13" height="13" rx="3" fill="#35353E"/><text x="62" y="257" font-family="Inter, system-ui, sans-serif" font-size="12.5" font-weight="400" fill="#6B6B78" text-anchor="start">Alerts</text><rect x="36" y="292" width="13" height="13" rx="3" fill="#35353E"/><text x="62" y="303" font-family="Inter, system-ui, sans-serif" font-size="12.5" font-weight="400" fill="#6B6B78" text-anchor="start">Reports</text><rect x="36" y="338" width="13" height="13" rx="3" fill="#35353E"/><text x="62" y="349" font-family="Inter, system-ui, sans-serif" font-size="12.5" font-weight="400" fill="#6B6B78" text-anchor="start">Billing</text><rect x="36" y="384" width="13" height="13" rx="3" fill="#35353E"/><text x="62" y="395" font-family="Inter, system-ui, sans-serif" font-size="12.5" font-weight="400" fill="#6B6B78" text-anchor="start">Settings</text><rect x="16" y="816" width="204" height="60" rx="10" fill="#17171C"/><circle cx="46" cy="846" r="15" fill="url(#g-img)"/><rect x="70" y="838" width="92" height="6" rx="3" fill="#35353E"/><rect x="70" y="852" width="66" height="5" rx="2.5" fill="#35353E" opacity="0.6"/><rect x="236" y="0" width="1204" height="68" rx="0" fill="#0A0A0D"/><line x1="236" y1="68" x2="1440" y2="68" stroke="#232329" stroke-width="1"/><text x="268" y="42" font-family="Inter, system-ui, sans-serif" font-size="19" font-weight="600" fill="#E6E6EA" text-anchor="start">Fleet</text><rect x="1060" y="20" width="180" height="30" rx="15" fill="#17171C"/><text x="1078" y="40" font-family="JetBrains Mono, ui-monospace, monospace" font-size="9" font-weight="500" fill="#6B6B78" text-anchor="start" letter-spacing="1.2">LAST 30 DAYS</text><rect x="1256" y="20" width="130" height="30" rx="15" fill="#C6A87C"/><text x="1321" y="40" font-family="Inter, system-ui, sans-serif" font-size="12" font-weight="600" fill="#050507" text-anchor="middle">Export</text><rect x="268" y="100" width="1140" height="470" rx="10" fill="#17171C"/><rect x="268" y="100" width="1140" height="470" rx="10" fill="#232329" opacity="0.3"/><circle cx="626.42" cy="461.97" r="3.2" fill="#9FB4C9" opacity="0.5"/><circle cx="1099.67" cy="306.8" r="3.2" fill="#9FB4C9" opacity="0.5"/><circle cx="1067.97" cy="487.94" r="3.2" fill="#9FB4C9" opacity="0.5"/><circle cx="1198.22" cy="170.14" r="3.2" fill="#9FB4C9" opacity="0.5"/><circle cx="1228.68" cy="500.81" r="3.2" fill="#9FB4C9" opacity="0.5"/><circle cx="566.43" cy="393.02" r="7" fill="#C6A87C" opacity="0.95"/><circle cx="566.43" cy="393.02" r="16" fill="#C6A87C" opacity="0.12"/><circle cx="435.36" cy="309.38" r="3.2" fill="#9FB4C9" opacity="0.5"/><circle cx="939.16" cy="291.38" r="3.2" fill="#9FB4C9" opacity="0.5"/><circle cx="1100.7" cy="428.76" r="3.2" fill="#9FB4C9" opacity="0.5"/><circle cx="875.89" cy="251.94" r="7" fill="#C6A87C" opacity="0.95"/><circle cx="875.89" cy="251.94" r="16" fill="#C6A87C" opacity="0.12"/><circle cx="482.73" cy="293.66" r="3.2" fill="#9FB4C9" opacity="0.5"/><circle cx="338.69" cy="385.77" r="3.2" fill="#9FB4C9" opacity="0.5"/><circle cx="618.51" cy="266.66" r="3.2" fill="#9FB4C9" opacity="0.5"/><circle cx="939.84" cy="264.6" r="3.2" fill="#9FB4C9" opacity="0.5"/><circle cx="440.61" cy="373.15" r="3.2" fill="#9FB4C9" opacity="0.5"/><circle cx="964.17" cy="514.74" r="3.2" fill="#9FB4C9" opacity="0.5"/><circle cx="851.84" cy="505.53" r="3.2" fill="#9FB4C9" opacity="0.5"/><circle cx="1344.39" cy="408.72" r="3.2" fill="#9FB4C9" opacity="0.5"/><circle cx="1172.86" cy="142.15" r="3.2" fill="#9FB4C9" opacity="0.5"/><circle cx="1252.89" cy="469.46" r="3.2" fill="#9FB4C9" opacity="0.5"/><circle cx="1079.35" cy="270.7" r="3.2" fill="#9FB4C9" opacity="0.5"/><circle cx="429.63" cy="330.33" r="3.2" fill="#9FB4C9" opacity="0.5"/><circle cx="1078.5" cy="461.12" r="3.2" fill="#9FB4C9" opacity="0.5"/><circle cx="962.97" cy="145.04" r="7" fill="#C6A87C" opacity="0.95"/><circle cx="962.97" cy="145.04" r="16" fill="#C6A87C" opacity="0.12"/><circle cx="359.1" cy="203.65" r="7" fill="#C6A87C" opacity="0.95"/><circle cx="359.1" cy="203.65" r="16" fill="#C6A87C" opacity="0.12"/><circle cx="1166.92" cy="430.29" r="3.2" fill="#9FB4C9" opacity="0.5"/><line x1="696.2" y1="210.99" x2="665.36" y2="220.36" stroke="#35353E" stroke-width="1" opacity="0.35"/><line x1="1020.59" y1="364.55" x2="1112.4" y2="356.45" stroke="#35353E" stroke-width="1" opacity="0.35"/><line x1="640.97" y1="331.22" x2="636.02" y2="303.93" stroke="#35353E" stroke-width="1" opacity="0.35"/><line x1="377.75" y1="502.34" x2="470.65" y2="536.94" stroke="#35353E" stroke-width="1" opacity="0.35"/><line x1="602.84" y1="458.16" x2="553.8" y2="465.33" stroke="#35353E" stroke-width="1" opacity="0.35"/><line x1="838.89" y1="386.61" x2="880.82" y2="361.5" stroke="#35353E" stroke-width="1" opacity="0.35"/><line x1="1270.47" y1="392.84" x2="1366.81" y2="319.15" stroke="#35353E" stroke-width="1" opacity="0.35"/><line x1="1114.89" y1="442.82" x2="1175.26" y2="450.6" stroke="#35353E" stroke-width="1" opacity="0.35"/><line x1="354.1" y1="515.5" x2="248.09" y2="589.96" stroke="#35353E" stroke-width="1" opacity="0.35"/><line x1="1245.11" y1="306.27" x2="1217.11" y2="303.87" stroke="#35353E" stroke-width="1" opacity="0.35"/><line x1="591.55" y1="494.84" x2="700.14" y2="471.6" stroke="#35353E" stroke-width="1" opacity="0.35"/><line x1="1207.04" y1="491.31" x2="1195.12" y2="504.76" stroke="#35353E" stroke-width="1" opacity="0.35"/><line x1="707.1" y1="520.11" x2="783.28" y2="491.21" stroke="#35353E" stroke-width="1" opacity="0.35"/><line x1="873.93" y1="203.51" x2="931.67" y2="238.34" stroke="#35353E" stroke-width="1" opacity="0.35"/><rect x="268" y="598" width="364" height="270" rx="10" fill="#17171C"/><rect x="268" y="598" width="364" height="270" rx="10" fill="#232329" opacity="0.3"/><text x="292" y="632" font-family="JetBrains Mono, ui-monospace, monospace" font-size="8.5" font-weight="500" fill="#6B6B78" text-anchor="start" letter-spacing="1.2">LOAD</text><text x="292" y="686" font-family="Inter, system-ui, sans-serif" font-size="34" font-weight="700" fill="#E6E6EA" text-anchor="start">74%</text><rect x="292" y="806.58" width="21.33" height="23.42" rx="2" fill="#35353E" opacity="0.6"/><rect x="318.33" y="796.01" width="21.33" height="33.99" rx="2" fill="#35353E" opacity="0.6"/><rect x="344.67" y="787.12" width="21.33" height="42.88" rx="2" fill="#35353E" opacity="0.6"/><rect x="371" y="728.39" width="21.33" height="101.61" rx="2" fill="#35353E" opacity="0.6"/><rect x="397.33" y="740.11" width="21.33" height="89.89" rx="2" fill="#35353E" opacity="0.6"/><rect x="423.67" y="729.76" width="21.33" height="100.24" rx="2" fill="#35353E" opacity="0.6"/><rect x="450" y="722.95" width="21.33" height="107.05" rx="2" fill="#35353E" opacity="0.6"/><rect x="476.33" y="756.47" width="21.33" height="73.53" rx="2" fill="#35353E" opacity="0.6"/><rect x="502.67" y="731.82" width="21.33" height="98.18" rx="2" fill="#35353E" opacity="0.6"/><rect x="529" y="772.53" width="21.33" height="57.47" rx="2" fill="#35353E" opacity="0.6"/><rect x="555.33" y="734.96" width="21.33" height="95.04" rx="2" fill="#35353E" opacity="0.6"/><rect x="581.67" y="722.68" width="21.33" height="107.32" rx="2" fill="#35353E" opacity="0.6"/><rect x="656" y="598" width="364" height="270" rx="10" fill="#17171C"/><rect x="656" y="598" width="364" height="270" rx="10" fill="#232329" opacity="0.3"/><text x="680" y="632" font-family="JetBrains Mono, ui-monospace, monospace" font-size="8.5" font-weight="500" fill="#6B6B78" text-anchor="start" letter-spacing="1.2">DISTANCE</text><text x="680" y="686" font-family="Inter, system-ui, sans-serif" font-size="34" font-weight="700" fill="#C6A87C" text-anchor="start">18.2k</text><rect x="680" y="738.02" width="21.33" height="91.98" rx="2" fill="#35353E" opacity="0.6"/><rect x="706.33" y="762.95" width="21.33" height="67.05" rx="2" fill="#35353E" opacity="0.6"/><rect x="732.67" y="792.45" width="21.33" height="37.55" rx="2" fill="#35353E" opacity="0.6"/><rect x="759" y="738.18" width="21.33" height="91.82" rx="2" fill="#35353E" opacity="0.6"/><rect x="785.33" y="742.31" width="21.33" height="87.69" rx="2" fill="#35353E" opacity="0.6"/><rect x="811.67" y="786.57" width="21.33" height="43.43" rx="2" fill="#35353E" opacity="0.6"/><rect x="838" y="765.82" width="21.33" height="64.18" rx="2" fill="#35353E" opacity="0.6"/><rect x="864.33" y="737.23" width="21.33" height="92.77" rx="2" fill="#35353E" opacity="0.6"/><rect x="890.67" y="753.32" width="21.33" height="76.68" rx="2" fill="#35353E" opacity="0.6"/><rect x="917" y="743.68" width="21.33" height="86.32" rx="2" fill="#35353E" opacity="0.6"/><rect x="943.33" y="807.47" width="21.33" height="22.53" rx="2" fill="#35353E" opacity="0.6"/><rect x="969.67" y="762.52" width="21.33" height="67.48" rx="2" fill="#35353E" opacity="0.6"/><rect x="1044" y="598" width="364" height="270" rx="10" fill="#17171C"/><rect x="1044" y="598" width="364" height="270" rx="10" fill="#232329" opacity="0.3"/><text x="1068" y="632" font-family="JetBrains Mono, ui-monospace, monospace" font-size="8.5" font-weight="500" fill="#6B6B78" text-anchor="start" letter-spacing="1.2">FUEL</text><text x="1068" y="686" font-family="Inter, system-ui, sans-serif" font-size="34" font-weight="700" fill="#E6E6EA" text-anchor="start">92%</text><rect x="1068" y="761.84" width="21.33" height="68.16" rx="2" fill="#35353E" opacity="0.6"/><rect x="1094.33" y="774.48" width="21.33" height="55.52" rx="2" fill="#35353E" opacity="0.6"/><rect x="1120.67" y="729.67" width="21.33" height="100.33" rx="2" fill="#35353E" opacity="0.6"/><rect x="1147" y="792.49" width="21.33" height="37.51" rx="2" fill="#35353E" opacity="0.6"/><rect x="1173.33" y="767.75" width="21.33" height="62.25" rx="2" fill="#35353E" opacity="0.6"/><rect x="1199.67" y="790.72" width="21.33" height="39.28" rx="2" fill="#35353E" opacity="0.6"/><rect x="1226" y="742.65" width="21.33" height="87.35" rx="2" fill="#35353E" opacity="0.6"/><rect x="1252.33" y="760.27" width="21.33" height="69.73" rx="2" fill="#35353E" opacity="0.6"/><rect x="1278.67" y="771.49" width="21.33" height="58.51" rx="2" fill="#35353E" opacity="0.6"/><rect x="1305" y="750.94" width="21.33" height="79.06" rx="2" fill="#35353E" opacity="0.6"/><rect x="1331.33" y="749.19" width="21.33" height="80.81" rx="2" fill="#35353E" opacity="0.6"/><rect x="1357.67" y="758.27" width="21.33" height="71.73" rx="2" fill="#35353E" opacity="0.6"/>
</svg>